<svg width="24" height="24" viewBox="0 0 24 24" fill="none" xmlns="http://www.w3.org/2000/svg">
<path d="M24 17.9997C24 18.7069 23.719 19.3852 23.219 19.8853C22.7189 20.3854 22.0406 20.6663 21.3333 20.6663H2.66667C1.95942 20.6663 1.28115 20.3854 0.781049 19.8853C0.280952 19.3852 0 18.7069 0 17.9997V14.333H24V17.9997Z" fill="#EC1C24"/>
<path d="M21.3333 3.33301H2.66667C1.95942 3.33301 1.28115 3.61396 0.781049 4.11406C0.280952 4.61415 0 5.29243 0 5.99967L0 9.66634H24V5.99967C24 5.29243 23.719 4.61415 23.219 4.11406C22.7189 3.61396 22.0406 3.33301 21.3333 3.33301Z" fill="#EEEEEE"/>
<path d="M0 9H24V15H0V9Z" fill="#1B75BB"/>
<mask id="path-4-inside-1_319_5019" fill="white">
<path fill-rule="evenodd" clip-rule="evenodd" d="M2.66667 3.33301H21.3333C22.0406 3.33301 22.7189 3.61396 23.219 4.11406C23.719 4.61415 24 5.29243 24 5.99967V10.333V11.6663V17.9997C24 18.7069 23.719 19.3852 23.219 19.8853C22.7189 20.3854 22.0406 20.6663 21.3333 20.6663H2.66667C1.95942 20.6663 1.28115 20.3854 0.781049 19.8853C0.280952 19.3852 0 18.7069 0 17.9997V11.6663V10.333V5.99967C0 5.29243 0.280952 4.61415 0.781049 4.11406C1.28115 3.61396 1.95942 3.33301 2.66667 3.33301Z"/>
</mask>
<path d="M23.219 4.11406L23.5725 3.7605V3.7605L23.219 4.11406ZM0.781049 4.11406L0.427495 3.7605L0.427495 3.7605L0.781049 4.11406ZM21.3333 2.83301H2.66667V3.83301H21.3333V2.83301ZM23.5725 3.7605C22.9786 3.16664 22.1732 2.83301 21.3333 2.83301V3.83301C21.908 3.83301 22.4591 4.06128 22.8654 4.46761L23.5725 3.7605ZM24.5 5.99967C24.5 5.15982 24.1664 4.35437 23.5725 3.7605L22.8654 4.46761C23.2717 4.87394 23.5 5.42504 23.5 5.99967H24.5ZM24.5 10.333V5.99967H23.5V10.333H24.5ZM23.5 10.333V11.6663H24.5V10.333H23.5ZM23.5 11.6663V17.9997H24.5V11.6663H23.5ZM23.5 17.9997C23.5 18.5743 23.2717 19.1254 22.8654 19.5317L23.5725 20.2388C24.1664 19.645 24.5 18.8395 24.5 17.9997H23.5ZM22.8654 19.5317C22.4591 19.9381 21.908 20.1663 21.3333 20.1663V21.1663C22.1732 21.1663 22.9786 20.8327 23.5725 20.2388L22.8654 19.5317ZM21.3333 20.1663H2.66667V21.1663H21.3333V20.1663ZM2.66667 20.1663C2.09203 20.1663 1.54093 19.9381 1.1346 19.5317L0.427495 20.2388C1.02136 20.8327 1.82681 21.1663 2.66667 21.1663V20.1663ZM1.1346 19.5317C0.728273 19.1254 0.5 18.5743 0.5 17.9997H-0.5C-0.5 18.8395 -0.16637 19.645 0.427495 20.2388L1.1346 19.5317ZM0.5 17.9997V11.6663H-0.5V17.9997H0.5ZM0.5 11.6663V10.333H-0.5V11.6663H0.5ZM-0.5 5.99967V10.333H0.5V5.99967H-0.5ZM0.427495 3.7605C-0.16637 4.35437 -0.5 5.15982 -0.5 5.99967H0.5C0.5 5.42504 0.728273 4.87394 1.1346 4.46761L0.427495 3.7605ZM2.66667 2.83301C1.82681 2.83301 1.02136 3.16664 0.427495 3.7605L1.1346 4.46761C1.54093 4.06128 2.09203 3.83301 2.66667 3.83301V2.83301Z" fill="#111111" mask="url(#path-4-inside-1_319_5019)"/>
</svg>
