<svg width="485" height="547" viewBox="0 0 485 547" fill="none" xmlns="http://www.w3.org/2000/svg">
<path d="M165.423 22.4662C165.463 14.031 174.591 8.77726 181.904 12.9803L443.469 163.299C455.884 170.434 463.538 183.661 463.538 197.98V412.022C463.538 415.093 460.222 417.018 457.555 415.496L186.986 261.083C164.219 262.051 164.3 233.003 164.441 228.632C164.453 228.254 164.465 227.896 164.467 227.517L165.423 22.4662Z" fill="#000A04"/>
<path d="M292.021 523.397H288.442V544.69H292.021V523.397Z" fill="#4B00E3"/>
<path fill-rule="evenodd" clip-rule="evenodd" d="M262.138 539.859C270.011 544.333 278.421 546.659 287.368 546.659C301.325 546.659 311.882 540.933 313.85 539.859L472.027 448.066C474.89 446.277 484.195 440.193 484.195 431.783V426.415V424.626L484.732 226.904V223.862V193.443C484.732 190.401 484.195 163.203 458.965 148.71L208.995 4.48915C200.943 -0.342065 194.143 -1.23674 189.312 1.62621L172.632 11.3426C172.023 11.5727 171.44 11.853 170.882 12.1833C163.188 16.4777 162.83 28.4663 162.83 30.7924L162.293 228.693C162.293 231.556 162.651 246.587 173.029 260.186L175.892 258.038C166.409 245.334 165.872 231.377 165.872 228.693L166.409 30.9713C166.409 29.7188 166.588 18.9828 172.672 15.4041C172.751 15.3587 172.831 15.3147 172.912 15.272C176.657 13.3037 181.945 14.4139 188.775 18.2671L188.93 18.3562L438.567 162.846C461.829 176.266 462.544 201.495 462.544 204.358L462.008 402.08H462.186V404.764V423L312.24 514.987C310.271 516.061 300.609 521.25 287.547 521.25C279.316 521.25 271.443 519.103 264.106 514.987L14.1358 370.767C7.15735 366.83 3.57868 362.536 3.57868 358.241H0V379.713C0 385.439 4.11548 390.807 12.3464 395.46L262.138 539.859Z" fill="#111111"/>
<path d="M262.317 518.387C271.085 523.576 279.674 525.186 287.368 525.186C301.504 525.186 312.24 519.282 313.85 518.387L448 436L464.5 425.5V420L322.439 336.59L197.543 264.48C172.313 249.807 148.694 262.87 146.01 264.48L12.1675 342.316C9.30456 343.927 0 350.01 0 358.599C0 363.072 2.68401 367.367 7.87309 371.303C8.76776 372.019 9.66243 372.735 10.736 373.272C11.0939 373.451 11.6307 373.808 11.9886 373.987L137.421 446.277L262.317 518.387Z" fill="#111111"/>
<path fill-rule="evenodd" clip-rule="evenodd" d="M287.368 546.659C278.421 546.659 270.011 544.333 262.138 539.859L12.3464 395.46C4.11548 390.807 0 385.439 0 379.713V358.599V358.241H0.0053837C0.258209 349.841 9.34447 343.904 12.1675 342.316L146.01 264.48C147.701 263.465 157.703 257.904 171.183 257.599C162.608 244.739 162.293 231.376 162.293 228.693L162.83 30.7924C162.83 28.4663 163.188 16.4777 170.882 12.1833C171.44 11.853 172.023 11.5727 172.632 11.3426L189.312 1.62621C194.143 -1.23674 200.943 -0.342065 208.995 4.48915L458.965 148.71C484.195 163.203 484.732 190.401 484.732 193.443V223.862V226.904L484.195 424.626V426.415V431.783C484.195 440.193 474.89 446.277 472.027 448.066L313.85 539.859C311.882 540.933 301.325 546.659 287.368 546.659ZM462.602 185.366C459.232 176.505 452.801 166.363 440.536 159.267L190.565 15.0462C186.948 12.8761 183.584 11.5003 180.537 10.9025L191.101 4.66808C194.859 2.52088 200.227 3.59448 207.205 7.53102L457.534 151.752C480.974 165.172 481.511 190.401 481.511 193.264L481.332 226.904V229.946L480.795 424.626V426.236V431.604C480.795 438.404 472.206 443.772 470.417 444.845L312.24 536.638C310.271 537.712 300.609 542.901 287.547 542.901C279.316 542.901 271.443 540.933 264.106 536.638L14.1358 392.418C7.15735 388.481 3.57868 384.187 3.57868 379.892V367.317C4.73592 368.68 6.16951 370.011 7.87309 371.303C8.76776 372.019 9.66243 372.735 10.736 373.272C10.9149 373.361 11.1384 373.495 11.3619 373.629L11.3622 373.629L11.3631 373.63C11.5865 373.764 11.8098 373.898 11.9886 373.987L137.421 446.277L261.913 518.154L262.317 518.387L262.322 518.39C271.088 523.577 279.675 525.187 287.368 525.187L287.439 525.186L287.547 525.187C301.504 525.187 312.061 519.461 314.029 518.387L464.87 425.863L465.765 425.326V401.901V398.859L466.302 204.179C466.302 204.167 466.302 204.155 466.302 204.143L466.302 204C466.302 203.208 466.254 200.778 465.739 197.36C465.247 194.063 464.325 189.876 462.602 185.366ZM462.186 402.08V404.764V418.641L322.439 336.59L197.543 264.48C189.916 260.045 182.437 258.144 175.638 257.694C166.399 245.083 165.872 231.353 165.872 228.693L166.409 30.9713C166.409 29.7188 166.588 18.9828 172.672 15.4041C172.751 15.3587 172.831 15.3147 172.912 15.272C176.657 13.3037 181.945 14.4139 188.775 18.2671L188.931 18.3568L438.567 162.846C461.829 176.266 462.544 201.495 462.544 204.358L462.008 402.08H462.186ZM462.186 423L334.791 501.153L311.882 515.166C311.756 515.238 311.579 515.337 311.356 515.458C308.178 517.106 299.22 521.25 287.547 521.25C279.316 521.25 271.443 519.103 264.106 514.987L14.1358 370.767C12.3073 369.735 10.7123 368.679 9.35389 367.605C5.62304 364.602 3.75761 361.589 3.75761 358.42C3.75761 351.621 12.3464 346.253 14.1358 345.179L147.978 267.343C150.304 265.911 172.313 253.744 195.933 267.343L320.649 339.632L462.186 422.643V423Z" fill="#4B00E3"/>
<path d="M270.5 504C270.5 504 277.012 508.545 289 508C300 507.5 312 500 312 500L425 432C428.937 429.495 435 426 435 422.5C434.825 418.99 430.944 416.665 429.106 415.564L429 415.5L190 276C190 276 183 271.5 172 271.5C163.5 271.5 160.258 273.032 156.5 275L27.5561 349.905C27.5561 349.905 24.3353 352.052 22.7249 354.736C20.7566 358.315 22.1881 361.178 27.5561 364.22L270.5 504Z" fill="#000A04" stroke="#4B00E3" stroke-width="4"/>
<path d="M166.124 298.803C163.261 298.803 160.577 298.088 158.43 297.014L155.03 295.046C152.704 293.614 151.273 291.646 151.273 289.499C151.273 287.352 152.525 285.383 154.852 284.131L158.251 282.163C160.398 280.91 163.082 280.373 165.945 280.373C168.808 280.373 171.492 281.089 173.64 282.163L177.039 284.131C179.365 285.562 180.797 287.531 180.797 289.678C180.797 291.825 179.544 293.793 177.039 295.225L173.64 297.193C171.85 298.088 168.987 298.803 166.124 298.803ZM166.124 283.773C163.977 283.773 161.83 284.31 160.22 285.204L156.82 287.173C155.567 287.888 154.852 288.783 154.852 289.499C154.852 290.394 155.567 291.109 156.82 291.825L160.22 293.793C163.261 295.583 168.987 295.583 172.029 293.793L175.429 291.825C176.681 291.109 177.397 290.215 177.397 289.499C177.397 288.604 176.681 287.888 175.429 287.173L172.029 285.204C170.419 284.31 168.272 283.773 166.124 283.773Z" fill="#4B00E3"/>
<path d="M189.923 312.402C187.06 312.402 184.376 311.687 182.229 310.613L178.829 308.645C176.503 307.213 175.071 305.245 175.071 303.098C175.071 300.951 176.324 298.982 178.65 297.73L182.05 295.762C184.197 294.509 186.881 293.972 189.744 293.972C192.607 293.972 195.291 294.688 197.438 295.762L200.838 297.73C203.164 299.161 204.595 301.13 204.595 303.277C204.595 305.424 203.343 307.392 200.838 308.645L197.438 310.613C195.47 311.866 192.786 312.402 189.923 312.402ZM189.923 297.551C187.776 297.551 185.628 298.088 184.018 298.982L180.618 300.951C179.366 301.666 178.65 302.561 178.65 303.277C178.65 304.171 179.366 304.887 180.618 305.603L184.018 307.571C187.06 309.36 192.786 309.36 195.828 307.571L199.227 305.603C200.48 304.887 201.196 303.992 201.196 303.277C201.196 302.382 200.48 301.666 199.227 300.951L195.828 298.982C194.217 297.909 192.07 297.551 189.923 297.551Z" fill="#4B00E3"/>
<path d="M142.685 312.403C139.822 312.403 137.138 311.687 134.99 310.613L131.591 308.645C129.265 307.213 127.833 305.245 127.833 303.098C127.833 300.951 129.086 298.983 131.591 297.551L134.99 295.583C137.138 294.33 139.822 293.793 142.685 293.793C145.548 293.793 148.232 294.509 150.379 295.583L153.778 297.551C156.105 298.983 157.536 300.951 157.536 303.098C157.536 305.245 156.284 307.213 153.957 308.466L150.2 310.613C148.232 311.866 145.548 312.403 142.685 312.403ZM142.506 297.551C140.358 297.551 138.211 298.088 136.601 298.983L133.201 300.951C131.949 301.667 131.233 302.561 131.233 303.277C131.233 304.172 131.949 304.887 133.201 305.603L136.601 307.571C139.643 309.361 145.369 309.361 148.41 307.571L151.81 305.603C153.063 304.887 153.778 303.993 153.778 303.277C153.778 302.382 153.063 301.667 151.81 300.951L148.41 298.983C146.8 297.909 144.653 297.551 142.506 297.551Z" fill="#4B00E3"/>
<path d="M213.721 326.18C210.858 326.18 208.174 325.465 206.027 324.391L202.627 322.423C200.301 320.991 198.87 319.023 198.87 316.876C198.87 314.729 200.122 312.76 202.448 311.508L205.848 309.54C207.995 308.287 210.679 307.75 213.542 307.75C216.405 307.75 219.089 308.466 221.236 309.54L224.636 311.508C226.962 312.939 228.394 314.908 228.394 317.055C228.394 319.202 227.141 321.17 224.636 322.602L221.236 324.57C219.268 325.465 216.584 326.18 213.721 326.18ZM213.542 311.15C211.395 311.15 209.248 311.687 207.637 312.581L204.238 314.55C202.985 315.265 202.269 316.16 202.269 316.876C202.269 317.771 202.985 318.486 204.238 319.202L207.637 321.17C210.679 322.96 216.405 322.96 219.268 321.17L222.668 319.202C223.92 318.486 224.636 317.592 224.636 316.876C224.636 315.981 223.92 315.265 222.668 314.55L219.268 312.581C218.016 311.687 215.868 311.15 213.542 311.15Z" fill="#4B00E3"/>
<path d="M176.503 312.939C180.261 315.086 180.261 318.665 176.503 320.812L173.104 322.781C169.346 324.928 163.262 324.928 159.505 322.781L156.105 320.812C152.347 318.665 152.347 315.086 156.105 312.939L159.505 310.971C163.262 308.824 169.346 308.824 173.104 310.971L176.503 312.939Z" fill="#4B00E3"/>
<path d="M119.066 326.18C116.203 326.18 113.519 325.465 111.372 324.391L107.972 322.423C105.646 320.991 104.214 319.023 104.214 316.876C104.214 314.729 105.467 312.76 107.793 311.508L111.193 309.54C113.34 308.287 116.024 307.75 118.887 307.75C121.75 307.75 124.434 308.466 126.581 309.54L129.981 311.508C132.307 312.939 133.738 314.908 133.738 317.055C133.738 319.202 132.486 321.17 129.981 322.602L126.581 324.57C124.613 325.465 121.929 326.18 119.066 326.18ZM118.887 311.15C116.74 311.15 114.592 311.687 112.982 312.581L109.582 314.55C108.33 315.265 107.614 316.16 107.614 316.876C107.614 317.771 108.33 318.486 109.582 319.202L112.982 321.17C116.024 322.96 121.75 322.96 124.613 321.17L128.012 319.202C129.265 318.486 129.981 317.592 129.981 316.876C129.981 315.981 129.265 315.265 128.012 314.55L124.613 312.581C123.36 311.687 121.213 311.15 118.887 311.15Z" fill="#4B00E3"/>
<path d="M237.519 339.958C234.656 339.958 231.972 339.243 229.825 338.169L226.425 336.201C224.099 334.769 222.667 332.801 222.667 330.654C222.667 328.506 223.92 326.538 226.246 325.286L229.646 323.317C231.793 322.065 234.477 321.528 237.34 321.528C240.203 321.528 242.887 322.244 245.034 323.317L248.434 325.286C250.76 326.717 252.192 328.685 252.192 330.833C252.192 332.98 250.939 334.948 248.434 336.201L245.034 338.169C243.066 339.243 240.382 339.958 237.519 339.958ZM237.34 324.928C235.193 324.928 233.046 325.465 231.435 326.359L228.035 328.328C226.783 329.043 226.067 329.938 226.067 330.654C226.067 331.548 226.783 332.264 228.035 332.98L231.435 334.948C234.477 336.737 240.203 336.737 243.245 334.948L246.645 332.98C247.897 332.264 248.613 331.369 248.613 330.654C248.613 329.759 247.897 329.043 246.645 328.328L243.245 326.359C241.634 325.465 239.666 324.928 237.34 324.928Z" fill="#4B00E3"/>
<path d="M190.102 339.958C187.239 339.958 184.555 339.242 182.408 338.169L179.008 336.201C176.682 334.769 175.25 332.801 175.25 330.654C175.25 328.506 176.503 326.538 179.008 325.107L182.408 323.138C184.555 321.886 187.239 321.349 190.102 321.349C192.965 321.349 195.649 322.065 197.796 323.138L201.196 325.107C203.522 326.538 204.953 328.506 204.953 330.654C204.953 332.801 203.701 334.769 201.375 336.022L197.975 337.99C195.649 339.243 192.965 339.958 190.102 339.958ZM189.923 324.928C187.776 324.928 185.628 325.465 184.018 326.359L180.618 328.328C179.366 329.043 178.65 329.938 178.65 330.654C178.65 331.548 179.366 332.264 180.618 332.98L184.018 334.948C187.06 336.737 192.786 336.737 195.828 334.948L199.227 332.98C200.48 332.264 201.196 331.369 201.196 330.654C201.196 329.759 200.48 329.043 199.227 328.328L195.828 326.359C194.396 325.465 192.249 324.928 189.923 324.928Z" fill="#4B00E3"/>
<path d="M142.864 339.958C140.001 339.958 137.317 339.243 135.169 338.169L131.77 336.201C129.444 334.769 128.012 332.801 128.012 330.654C128.012 328.506 129.265 326.538 131.591 325.286L134.99 323.317C137.138 322.065 139.822 321.528 142.685 321.528C145.548 321.528 148.232 322.244 150.379 323.317L153.779 325.286C156.105 326.717 157.536 328.685 157.536 330.833C157.536 332.98 156.284 334.948 153.779 336.201L150.379 338.169C148.411 339.243 145.727 339.958 142.864 339.958ZM142.685 324.928C140.537 324.928 138.39 325.465 136.78 326.359L133.38 328.328C132.128 329.043 131.412 329.938 131.412 330.654C131.412 331.548 132.128 332.264 133.38 332.98L136.78 334.948C139.822 336.737 145.548 336.737 148.589 334.948L151.989 332.98C153.242 332.264 153.957 331.369 153.957 330.654C153.957 329.759 153.242 329.043 151.989 328.328L148.589 326.359C146.979 325.465 144.832 324.928 142.685 324.928Z" fill="#4B00E3"/>
<path d="M95.4459 339.958C92.5829 339.958 89.8989 339.242 87.7517 338.169L84.352 336.201C82.0258 334.769 80.5943 332.801 80.5943 330.654C80.5943 328.506 81.8469 326.538 84.352 325.107L87.7517 323.138C89.8989 321.886 92.5829 321.349 95.4459 321.349C98.3088 321.349 100.993 322.065 103.14 323.138L106.54 325.107C108.866 326.538 110.297 328.506 110.297 330.654C110.297 332.801 109.045 334.769 106.719 336.022L103.319 337.99C100.993 339.243 98.3088 339.958 95.4459 339.958ZM95.2669 324.928C93.1197 324.928 90.9725 325.465 89.3621 326.359L85.9624 328.328C84.7098 329.043 83.9941 329.938 83.9941 330.654C83.9941 331.548 84.7098 332.264 85.9624 332.98L89.3621 334.948C92.404 336.737 98.1299 336.737 101.172 334.948L104.571 332.98C105.824 332.264 106.54 331.369 106.54 330.654C106.54 329.759 105.824 329.043 104.571 328.328L101.172 326.359C99.7403 325.465 97.5931 324.928 95.2669 324.928Z" fill="#4B00E3"/>
<path d="M261.139 353.557C258.276 353.557 255.592 352.841 253.445 351.768L250.045 349.8C247.719 348.368 246.287 346.4 246.287 344.253C246.287 342.105 247.54 340.137 249.866 338.885L253.266 336.916C255.413 335.664 258.097 335.127 260.96 335.127C263.823 335.127 266.507 335.843 268.654 336.916L272.054 338.885C274.38 340.316 275.811 342.284 275.811 344.432C275.811 346.579 274.559 348.547 272.054 349.978L268.654 351.947C266.865 353.02 264.002 353.557 261.139 353.557ZM261.139 338.706C258.992 338.706 256.844 339.242 255.234 340.137L251.834 342.105C250.582 342.821 249.866 343.716 249.866 344.432C249.866 345.326 250.582 346.042 251.834 346.758L255.234 348.726C258.276 350.515 264.002 350.515 266.865 348.726L270.264 346.758C271.517 346.042 272.233 345.147 272.233 344.432C272.233 343.537 271.517 342.821 270.264 342.105L266.865 340.137C265.433 339.064 263.286 338.706 261.139 338.706Z" fill="#4B00E3"/>
<path d="M213.901 353.557C211.038 353.557 208.354 352.842 206.206 351.768L202.807 349.8C200.481 348.368 199.049 346.4 199.049 344.253C199.049 342.106 200.302 340.137 202.807 338.706L206.206 336.738C208.354 335.485 211.038 334.948 213.901 334.948C216.764 334.948 219.448 335.664 221.595 336.738L224.995 338.706C227.321 340.137 228.752 342.106 228.752 344.253C228.752 346.4 227.5 348.368 225.173 349.621L221.774 351.589C219.448 353.021 216.764 353.557 213.901 353.557ZM213.722 338.706C211.575 338.706 209.427 339.243 207.817 340.137L204.417 342.106C203.165 342.821 202.449 343.716 202.449 344.432C202.449 345.326 203.165 346.042 204.417 346.758L207.817 348.726C210.859 350.515 216.585 350.515 219.627 348.726L223.026 346.758C224.279 346.042 224.995 345.147 224.995 344.432C224.995 343.537 224.279 342.821 223.026 342.106L219.627 340.137C218.195 339.064 216.048 338.706 213.722 338.706Z" fill="#4B00E3"/>
<path d="M166.483 353.557C163.62 353.557 160.936 352.841 158.789 351.768L155.389 349.8C153.063 348.368 151.631 346.4 151.631 344.253C151.631 342.105 152.884 340.137 155.21 338.885L158.61 336.916C160.757 335.664 163.441 335.127 166.304 335.127C169.167 335.127 171.851 335.843 173.998 336.916L177.398 338.885C179.724 340.316 181.155 342.284 181.155 344.432C181.155 346.579 179.903 348.547 177.398 349.978L173.998 351.947C172.03 353.02 169.346 353.557 166.483 353.557ZM166.483 338.706C164.336 338.706 162.189 339.242 160.578 340.137L157.178 342.105C155.926 342.821 155.21 343.716 155.21 344.432C155.21 345.326 155.926 346.042 157.178 346.758L160.578 348.726C163.62 350.515 169.346 350.515 172.209 348.726L175.609 346.758C176.861 346.042 177.577 345.147 177.577 344.432C177.577 343.537 176.861 342.821 175.609 342.105L172.209 340.137C170.777 339.064 168.63 338.706 166.483 338.706Z" fill="#4B00E3"/>
<path d="M119.244 353.557C116.381 353.557 113.697 352.842 111.55 351.768L108.15 349.8C105.824 348.368 104.392 346.4 104.392 344.253C104.392 342.106 105.645 340.137 108.15 338.706L111.55 336.738C113.697 335.485 116.381 334.948 119.244 334.948C122.107 334.948 124.791 335.664 126.938 336.738L130.338 338.706C132.664 340.137 134.095 342.106 134.095 344.253C134.095 346.4 132.843 348.368 130.517 349.621L127.117 351.589C124.791 353.021 122.107 353.557 119.244 353.557ZM119.065 338.706C116.918 338.706 114.77 339.243 113.16 340.137L109.76 342.106C108.508 342.821 107.792 343.716 107.792 344.432C107.792 345.326 108.508 346.042 109.76 346.758L113.16 348.726C116.202 350.515 121.928 350.515 124.97 348.726L128.369 346.758C129.622 346.042 130.338 345.147 130.338 344.432C130.338 343.537 129.622 342.821 128.369 342.106L124.97 340.137C123.359 339.064 121.212 338.706 119.065 338.706Z" fill="#4B00E3"/>
<path d="M284.937 367.335C282.074 367.335 279.39 366.619 277.243 365.546L273.843 363.578C271.517 362.146 270.085 360.178 270.085 358.031C270.085 355.883 271.338 353.915 273.664 352.663L277.064 350.694C279.211 349.442 281.895 348.905 284.758 348.905C287.621 348.905 290.305 349.621 292.452 350.694L295.852 352.663C298.178 354.094 299.609 356.062 299.609 358.21C299.609 360.357 298.357 362.325 295.852 363.757L292.452 365.725C290.484 366.619 287.8 367.335 284.937 367.335ZM284.937 352.305C282.789 352.305 280.642 352.842 279.032 353.736L275.632 355.705C274.38 356.42 273.664 357.315 273.664 358.031C273.664 358.925 274.38 359.641 275.632 360.357L279.032 362.325C282.074 364.114 287.8 364.114 290.842 362.325L294.241 360.357C295.494 359.641 296.21 358.746 296.21 358.031C296.21 357.136 295.494 356.42 294.241 355.705L290.842 353.736C289.231 352.842 287.084 352.305 284.937 352.305Z" fill="#4B00E3"/>
<path d="M237.519 367.335C234.656 367.335 231.972 366.619 229.825 365.546L226.425 363.578C224.099 362.146 222.667 360.178 222.667 358.031C222.667 355.883 223.92 353.915 226.425 352.663L229.825 350.694C231.972 349.442 234.656 348.905 237.519 348.905C240.382 348.905 243.066 349.621 245.213 350.694L248.613 352.663C250.939 354.094 252.37 356.062 252.37 358.21C252.37 360.357 251.118 362.325 248.792 363.578L245.392 365.546C243.245 366.619 240.382 367.335 237.519 367.335ZM237.519 352.305C235.372 352.305 233.225 352.842 231.614 353.736L228.214 355.705C226.962 356.42 226.246 357.315 226.246 358.031C226.246 358.925 226.962 359.641 228.214 360.357L231.614 362.325C234.656 364.114 240.382 364.114 243.424 362.325L246.824 360.357C248.076 359.641 248.792 358.746 248.792 358.031C248.792 357.136 248.076 356.42 246.824 355.705L243.424 353.736C241.813 352.842 239.666 352.305 237.519 352.305Z" fill="#4B00E3"/>
<path d="M308.735 381.113C305.872 381.113 303.188 380.397 301.041 379.324L297.641 377.355C295.315 375.924 293.884 373.956 293.884 371.808C293.884 369.661 295.136 367.693 297.462 366.44L300.862 364.472C303.009 363.22 305.693 362.683 308.556 362.683C311.419 362.683 314.103 363.399 316.25 364.472L319.65 366.44C321.976 367.872 323.408 369.84 323.408 371.987C323.408 374.135 322.155 376.103 319.65 377.534L316.25 379.503C314.282 380.397 311.598 381.113 308.735 381.113ZM308.556 366.083C306.409 366.083 304.262 366.619 302.651 367.514L299.252 369.482C297.999 370.198 297.283 371.093 297.283 371.808C297.283 372.703 297.999 373.419 299.252 374.135L302.651 376.103C305.693 377.892 311.419 377.892 314.282 376.103L317.682 374.135C318.934 373.419 319.65 372.524 319.65 371.808C319.65 370.914 318.934 370.198 317.682 369.482L314.282 367.514C313.029 366.619 310.882 366.083 308.556 366.083Z" fill="#4B00E3"/>
<path d="M261.318 381.113C258.455 381.113 255.771 380.397 253.624 379.324L250.224 377.355C247.898 375.924 246.466 373.956 246.466 371.808C246.466 369.661 247.719 367.693 250.224 366.262L253.624 364.293C255.771 363.041 258.455 362.504 261.318 362.504C264.181 362.504 266.865 363.22 269.012 364.293L272.412 366.262C274.738 367.693 276.169 369.661 276.169 371.808C276.169 373.956 274.917 375.924 272.591 377.176L269.191 379.145C266.865 380.397 264.181 381.113 261.318 381.113ZM261.318 366.083C259.171 366.083 257.023 366.619 255.413 367.514L252.013 369.482C250.761 370.198 250.045 371.093 250.045 371.808C250.045 372.703 250.761 373.419 252.013 374.135L255.413 376.103C258.455 377.892 264.181 377.892 267.223 376.103L270.622 374.135C271.875 373.419 272.591 372.524 272.591 371.808C272.591 370.914 271.875 370.198 270.622 369.482L267.223 367.514C265.612 366.619 263.465 366.083 261.318 366.083Z" fill="#4B00E3"/>
<path d="M214.079 381.113C211.216 381.113 208.532 380.397 206.384 379.324L202.985 377.355C200.659 375.924 199.227 373.956 199.227 371.808C199.227 369.661 200.48 367.693 202.806 366.44L206.206 364.472C208.353 363.22 211.037 362.683 213.9 362.683C216.763 362.683 219.447 363.399 221.594 364.472L224.994 366.44C227.32 367.872 228.751 369.84 228.751 371.987C228.751 374.135 227.499 376.103 224.994 377.534L221.594 379.503C219.626 380.397 216.942 381.113 214.079 381.113ZM213.9 366.083C211.753 366.083 209.605 366.619 207.995 367.514L204.595 369.482C203.343 370.198 202.627 371.093 202.627 371.808C202.627 372.703 203.343 373.419 204.595 374.135L207.995 376.103C211.037 377.892 216.763 377.892 219.626 376.103L223.025 374.135C224.278 373.419 224.994 372.524 224.994 371.808C224.994 370.914 224.278 370.198 223.025 369.482L219.626 367.514C218.373 366.619 216.226 366.083 213.9 366.083Z" fill="#4B00E3"/>
<path d="M342.553 381.471C346.311 383.618 346.311 387.197 342.553 389.344L339.154 391.312C335.396 393.46 329.312 393.46 325.555 391.312L322.155 389.344C318.397 387.197 318.397 383.618 322.155 381.471L325.555 379.503C329.312 377.356 335.396 377.356 339.154 379.503L342.553 381.471Z" fill="#4B00E3"/>
<path d="M285.116 394.712C282.253 394.712 279.569 393.996 277.422 392.923L274.022 390.955C271.696 389.523 270.264 387.555 270.264 385.408C270.264 383.26 271.517 381.292 274.022 379.861L277.422 377.892C279.569 376.64 282.253 376.103 285.116 376.103C287.979 376.103 290.663 376.819 292.81 377.892L296.21 379.861C298.536 381.292 299.967 383.26 299.967 385.408C299.967 387.555 298.715 389.523 296.389 390.776L292.989 392.744C290.663 394.175 287.979 394.712 285.116 394.712ZM284.937 379.682C282.79 379.682 280.642 380.218 279.032 381.113L275.632 383.081C274.38 383.797 273.664 384.692 273.664 385.408C273.664 386.302 274.38 387.018 275.632 387.734L279.032 389.702C282.074 391.491 287.8 391.491 290.842 389.702L294.241 387.734C295.494 387.018 296.21 386.123 296.21 385.408C296.21 384.513 295.494 383.797 294.241 383.081L290.842 381.113C289.41 380.218 287.263 379.682 284.937 379.682Z" fill="#4B00E3"/>
<path d="M237.698 394.712C234.836 394.712 232.152 393.996 230.004 392.923L226.605 390.954C224.278 389.523 222.847 387.555 222.847 385.407C222.847 383.26 224.1 381.292 226.426 380.039L229.825 378.071C231.973 376.819 234.657 376.282 237.52 376.282C240.383 376.282 243.067 376.997 245.214 378.071L248.613 380.039C250.94 381.471 252.371 383.439 252.371 385.586C252.371 387.733 251.119 389.702 248.613 391.133L245.214 393.102C243.424 394.175 240.561 394.712 237.698 394.712ZM237.698 379.681C235.551 379.681 233.404 380.218 231.794 381.113L228.394 383.081C227.141 383.797 226.426 384.692 226.426 385.407C226.426 386.302 227.141 387.018 228.394 387.734L231.794 389.702C234.836 391.491 240.561 391.491 243.603 389.702L247.003 387.734C248.256 387.018 248.971 386.123 248.971 385.407C248.971 384.513 248.256 383.797 247.003 383.081L243.603 381.113C241.993 380.218 239.846 379.681 237.698 379.681Z" fill="#4B00E3"/>
<path d="M308.914 408.49C306.051 408.49 303.367 407.774 301.219 406.701L297.82 404.732C295.494 403.301 294.062 401.333 294.062 399.185C294.062 397.038 295.315 395.07 297.82 393.638L301.219 391.67C303.367 390.418 306.051 389.881 308.914 389.881C311.777 389.881 314.461 390.597 316.608 391.67L320.007 393.638C322.334 395.07 323.765 397.038 323.765 399.185C323.765 401.333 322.513 403.301 320.186 404.553L316.787 406.522C314.461 407.774 311.777 408.49 308.914 408.49ZM308.735 393.46C306.587 393.46 304.44 393.996 302.83 394.891L299.43 396.859C298.178 397.575 297.462 398.47 297.462 399.185C297.462 400.08 298.178 400.796 299.43 401.512L302.83 403.48C305.872 405.269 311.598 405.269 314.639 403.48L318.039 401.512C319.292 400.796 320.007 399.901 320.007 399.185C320.007 398.291 319.292 397.575 318.039 396.859L314.639 394.891C313.029 393.996 311.061 393.46 308.735 393.46Z" fill="#4B00E3"/>
<path d="M271.517 395.249C275.274 397.396 275.274 400.975 271.517 403.122L268.117 405.09C264.359 407.237 258.276 407.237 254.518 405.09L251.118 403.122C247.361 400.975 247.361 397.396 251.118 395.249L254.518 393.281C258.276 391.133 264.359 391.133 268.117 393.281L271.517 395.249Z" fill="#4B00E3"/>
<path d="M379.951 422.089C377.088 422.089 374.404 421.373 372.257 420.3L368.857 418.331C366.531 416.9 365.099 414.932 365.099 412.784C365.099 410.637 366.352 408.669 368.678 407.416L372.078 405.448C374.225 404.195 376.909 403.659 379.772 403.659C382.635 403.659 385.319 404.374 387.466 405.448L390.866 407.416C393.192 408.848 394.623 410.816 394.623 412.963C394.623 415.11 393.371 417.079 390.866 418.51L387.466 420.478C385.498 421.552 382.814 422.089 379.951 422.089ZM379.951 407.237C377.803 407.237 375.656 407.774 374.046 408.669L370.646 410.637C369.394 411.353 368.678 412.248 368.678 412.963C368.678 413.858 369.394 414.574 370.646 415.289L374.046 417.258C377.088 419.047 382.814 419.047 385.855 417.258L389.255 415.289C390.508 414.574 391.223 413.679 391.223 412.963C391.223 412.069 390.508 411.353 389.255 410.637L385.855 408.669C384.245 407.595 382.098 407.237 379.951 407.237Z" fill="#4B00E3"/>
<path d="M237.877 422.089C235.015 422.089 232.33 421.373 230.183 420.3L131.77 363.578C129.444 362.146 128.012 360.178 128.012 358.031C128.012 355.883 129.265 353.915 131.77 352.663L135.169 350.694C137.317 349.442 140.001 348.905 142.864 348.905C145.727 348.905 148.411 349.621 150.558 350.694L248.971 407.416C251.297 408.848 252.729 410.816 252.729 412.963C252.729 415.111 251.476 417.079 249.15 418.331L245.751 420.3C243.424 421.552 240.74 422.089 237.877 422.089ZM142.864 352.305C140.716 352.305 138.569 352.842 136.959 353.736L133.559 355.705C132.306 356.42 131.591 357.315 131.591 358.031C131.591 358.925 132.306 359.641 133.559 360.357L231.973 417.079C235.015 418.868 240.74 418.868 243.782 417.079L247.182 415.111C248.435 414.395 249.15 413.5 249.15 412.784C249.15 411.89 248.435 411.174 247.182 410.458L148.768 353.736C147.158 352.842 145.011 352.305 142.864 352.305Z" fill="#4B00E3"/>
<path d="M262.569 435.33C259.707 435.33 257.023 434.614 254.875 433.541L251.476 431.572C249.149 430.141 247.718 428.173 247.718 426.026C247.718 423.878 248.971 421.91 251.476 420.479L254.875 418.51C257.023 417.258 259.707 416.721 262.569 416.721C265.432 416.721 268.116 417.437 270.264 418.51L273.663 420.479C275.99 421.91 277.421 423.878 277.421 426.026C277.421 428.173 276.168 430.141 273.663 431.572L270.264 433.541C268.116 434.614 265.432 435.33 262.569 435.33ZM262.569 420.3C260.422 420.3 258.275 420.836 256.665 421.731L253.265 423.699C252.012 424.415 251.297 425.31 251.297 426.026C251.297 426.92 252.012 427.636 253.265 428.352L256.665 430.32C259.707 432.109 265.432 432.109 268.474 430.32L271.874 428.352C273.127 427.636 273.842 426.741 273.842 426.026C273.842 425.131 273.127 424.415 271.874 423.699L268.474 421.731C266.864 420.836 264.717 420.3 262.569 420.3Z" fill="#4B00E3"/>
<path d="M403.749 435.867C400.886 435.867 398.202 435.151 396.054 434.077L392.655 432.109C390.328 430.678 388.897 428.709 388.897 426.562C388.897 424.415 390.15 422.447 392.476 421.194L395.875 419.226C398.023 417.973 400.707 417.437 403.57 417.437C406.433 417.437 409.117 418.152 411.264 419.226L414.663 421.194C416.99 422.626 418.421 424.594 418.421 426.741C418.421 428.888 417.169 430.857 414.663 432.109L411.264 434.077C409.295 435.151 406.611 435.867 403.749 435.867ZM403.57 420.836C401.422 420.836 399.275 421.373 397.665 422.268L394.265 424.236C393.012 424.952 392.297 425.846 392.297 426.562C392.297 427.457 393.012 428.173 394.265 428.888L397.665 430.857C400.707 432.646 406.433 432.646 409.474 430.857L412.874 428.888C414.127 428.173 414.842 427.278 414.842 426.562C414.842 425.667 414.127 424.952 412.874 424.236L409.474 422.268C408.043 421.373 405.896 420.836 403.57 420.836Z" fill="#4B00E3"/>
<path d="M366.352 422.626C370.11 424.773 370.11 428.352 366.352 430.499L362.953 432.467C359.195 434.614 353.111 434.614 349.354 432.467L345.954 430.499C342.196 428.352 342.196 424.773 345.954 422.626L349.354 420.658C353.111 418.51 359.195 418.51 362.953 420.658L366.352 422.626Z" fill="#4B00E3"/>
<path d="M224.457 422.626C228.214 424.773 228.214 428.352 224.457 430.499L221.057 432.467L204.237 442.308L200.838 444.277C197.08 446.424 190.996 446.424 187.239 444.277L136.421 414.932C132.664 412.784 132.664 409.206 136.421 407.058L139.821 405.09L156.641 395.249L160.041 393.281C163.798 391.133 169.882 391.133 173.64 393.281L224.457 422.626Z" fill="#4B00E3"/>
<path d="M380.13 449.645C377.267 449.645 374.583 448.929 372.436 447.855L369.036 445.887C366.71 444.456 365.278 442.487 365.278 440.34C365.278 438.193 366.531 436.225 369.036 434.793L372.436 432.825C374.583 431.572 377.267 431.036 380.13 431.036C382.993 431.036 385.677 431.751 387.824 432.825L391.224 434.793C393.55 436.225 394.981 438.193 394.981 440.34C394.981 442.487 393.729 444.456 391.403 445.708L388.003 447.676C385.677 448.929 382.993 449.645 380.13 449.645ZM379.951 434.614C377.804 434.614 375.656 435.151 374.046 436.046L370.646 438.014C369.394 438.73 368.678 439.624 368.678 440.34C368.678 441.235 369.394 441.951 370.646 442.666L374.046 444.635C377.088 446.424 382.814 446.424 385.856 444.635L389.255 442.666C390.508 441.951 391.224 441.056 391.224 440.34C391.224 439.446 390.508 438.73 389.255 438.014L385.856 436.046C384.424 435.151 382.277 434.614 379.951 434.614Z" fill="#4B00E3"/>
<path d="M332.891 477.022C330.029 477.022 327.345 476.306 325.197 475.232L321.798 473.264C319.471 471.833 318.04 469.864 318.04 467.717C318.04 465.57 319.292 463.602 321.798 462.17L325.197 460.202C327.345 458.949 330.029 458.413 332.891 458.413C335.754 458.413 338.438 459.128 340.586 460.202L343.985 462.17C346.312 463.602 347.743 465.57 347.743 467.717C347.743 469.864 346.49 471.833 344.164 473.085L340.765 475.053C338.438 476.306 335.754 477.022 332.891 477.022ZM332.891 461.991C330.744 461.991 328.597 462.528 326.987 463.423L323.587 465.391C322.334 466.107 321.619 467.001 321.619 467.717C321.619 468.612 322.334 469.328 323.587 470.043L326.987 472.012C330.029 473.801 335.754 473.801 338.796 472.012L342.196 470.043C343.449 469.328 344.164 468.433 344.164 467.717C344.164 466.822 343.449 466.107 342.196 465.391L338.796 463.423C337.186 462.528 335.039 461.991 332.891 461.991Z" fill="#4B00E3"/>
<path d="M190.281 367.335C187.418 367.335 184.734 366.619 182.587 365.546L179.187 363.578C176.861 362.146 175.429 360.178 175.429 358.031C175.429 355.883 176.682 353.915 179.008 352.663L182.408 350.694C184.555 349.442 187.239 348.905 190.102 348.905C192.965 348.905 195.649 349.621 197.796 350.694L201.196 352.663C203.522 354.094 204.953 356.062 204.953 358.21C204.953 360.357 203.701 362.325 201.196 363.757L197.796 365.725C195.828 366.619 193.144 367.335 190.281 367.335ZM190.102 352.305C187.955 352.305 185.807 352.842 184.197 353.736L180.797 355.705C179.545 356.42 178.829 357.315 178.829 358.031C178.829 358.925 179.545 359.641 180.797 360.357L184.197 362.325C187.239 364.114 192.965 364.114 196.007 362.325L199.406 360.357C200.659 359.641 201.375 358.746 201.375 358.031C201.375 357.136 200.659 356.42 199.406 355.705L196.007 353.736C194.575 352.842 192.428 352.305 190.102 352.305Z" fill="#4B00E3"/>
<path d="M366.352 395.249C370.11 397.396 370.11 400.975 366.352 403.122L362.953 405.09C359.195 407.237 353.111 407.237 349.354 405.09L345.954 403.122C342.196 400.975 342.196 397.396 345.954 395.249L349.354 393.281C353.111 391.133 359.195 391.133 362.953 393.281L366.352 395.249Z" fill="#4B00E3"/>
<path d="M332.533 422.268C329.67 422.268 326.986 421.552 324.839 420.478L321.44 418.51C319.113 417.079 317.682 415.11 317.682 412.963C317.682 410.816 318.934 408.848 321.44 407.595L324.839 405.627C326.986 404.374 329.67 403.838 332.533 403.838C335.396 403.838 338.08 404.553 340.228 405.627L343.627 407.595C345.953 409.027 347.385 410.995 347.385 413.142C347.385 415.289 346.132 417.258 343.806 418.51L340.407 420.478C338.259 421.552 335.396 422.268 332.533 422.268ZM332.533 407.237C330.386 407.237 328.239 407.774 326.629 408.669L323.229 410.637C321.976 411.353 321.261 412.248 321.261 412.963C321.261 413.858 321.976 414.574 323.229 415.289L326.629 417.258C329.67 419.047 335.396 419.047 338.438 417.258L341.838 415.289C343.091 414.574 343.806 413.679 343.806 412.963C343.806 412.069 343.091 411.353 341.838 410.637L338.438 408.669C336.828 407.774 334.681 407.237 332.533 407.237Z" fill="#4B00E3"/>
<path d="M309.093 435.867C306.23 435.867 303.546 435.151 301.398 434.077L297.999 432.109C295.673 430.678 294.241 428.709 294.241 426.562C294.241 424.415 295.494 422.447 297.82 421.194L301.22 419.226C303.367 417.973 306.051 417.437 308.914 417.437C311.777 417.437 314.461 418.152 316.608 419.226L320.008 421.194C322.334 422.626 323.765 424.594 323.765 426.741C323.765 428.888 322.513 430.857 320.008 432.109L316.608 434.077C314.64 435.151 311.956 435.867 309.093 435.867ZM308.914 420.836C306.766 420.836 304.619 421.373 303.009 422.268L299.609 424.236C298.357 424.952 297.641 425.846 297.641 426.562C297.641 427.457 298.357 428.173 299.609 428.888L303.009 430.857C306.051 432.646 311.777 432.646 314.818 430.857L318.218 428.888C319.471 428.173 320.187 427.278 320.187 426.562C320.187 425.667 319.471 424.952 318.218 424.236L314.818 422.268C313.208 421.373 311.061 420.836 308.914 420.836Z" fill="#4B00E3"/>
<path d="M285.474 449.645C282.611 449.645 279.927 448.929 277.78 447.855L274.38 445.887C272.054 444.456 270.622 442.487 270.622 440.34C270.622 438.193 271.875 436.225 274.38 434.793L277.78 432.825C279.927 431.572 282.611 431.036 285.474 431.036C288.337 431.036 291.021 431.751 293.168 432.825L296.568 434.793C298.894 436.225 300.325 438.193 300.325 440.34C300.325 442.487 299.073 444.456 296.747 445.708L293.347 447.676C291.021 448.929 288.337 449.645 285.474 449.645ZM285.295 434.614C283.148 434.614 281 435.151 279.39 436.046L275.99 438.014C274.738 438.73 274.022 439.624 274.022 440.34C274.022 441.235 274.738 441.951 275.99 442.666L279.39 444.635C282.432 446.424 288.158 446.424 291.2 444.635L294.599 442.666C295.852 441.951 296.568 441.056 296.568 440.34C296.568 439.446 295.852 438.73 294.599 438.014L291.2 436.046C289.589 435.151 287.442 434.614 285.295 434.614Z" fill="#4B00E3"/>
<path d="M356.51 463.244C353.647 463.244 350.963 462.528 348.816 461.454L345.416 459.486C343.09 458.055 341.658 456.086 341.658 453.939C341.658 451.792 342.911 449.824 345.237 448.571L348.637 446.603C350.784 445.35 353.468 444.813 356.331 444.813C359.194 444.813 361.878 445.529 364.025 446.603L367.425 448.571C369.751 450.003 371.182 451.971 371.182 454.118C371.182 456.265 369.93 458.234 367.425 459.486L364.025 461.454C362.057 462.707 359.373 463.244 356.51 463.244ZM356.51 448.392C354.363 448.392 352.215 448.929 350.605 449.824L347.205 451.792C345.953 452.508 345.237 453.402 345.237 454.118C345.237 455.013 345.953 455.728 347.205 456.444L350.605 458.412C353.647 460.202 359.373 460.202 362.415 458.412L365.814 456.444C367.067 455.728 367.783 454.834 367.783 454.118C367.783 453.223 367.067 452.508 365.814 451.792L362.415 449.824C360.804 448.75 358.657 448.392 356.51 448.392Z" fill="#4B00E3"/>
<path d="M309.093 463.244C306.23 463.244 303.546 462.528 301.398 461.454L297.999 459.486C295.673 458.055 294.241 456.086 294.241 453.939C294.241 451.792 295.494 449.824 297.999 448.392L301.398 446.424C303.546 445.171 306.23 444.635 309.093 444.635C311.956 444.635 314.64 445.35 316.787 446.424L320.187 448.392C322.513 449.824 323.944 451.792 323.944 453.939C323.944 456.086 322.692 458.055 320.365 459.307L316.966 461.275C314.818 462.707 311.956 463.244 309.093 463.244ZM309.093 448.392C306.945 448.392 304.798 448.929 303.188 449.824L299.788 451.792C298.536 452.508 297.82 453.402 297.82 454.118C297.82 455.013 298.536 455.728 299.788 456.444L303.188 458.412C306.23 460.202 311.956 460.202 314.997 458.412L318.397 456.444C319.65 455.728 320.365 454.834 320.365 454.118C320.365 453.223 319.65 452.508 318.397 451.792L314.997 449.824C313.387 448.75 311.24 448.392 309.093 448.392Z" fill="#4B00E3"/>
<mask id="path-46-inside-1_19_408" fill="white">
<path d="M404.211 307.066C409.937 310.287 414.589 318.518 414.589 324.96C414.589 331.58 409.937 334.264 404.211 330.864C399.201 328.001 394.906 321.381 394.012 315.476L368.782 300.982L368.961 258.038L351.068 247.66L330.311 259.649L314.923 250.702L314.744 293.646L335.679 305.814C336.753 300.982 340.868 299.193 345.879 302.235C351.604 305.456 356.257 313.508 356.257 320.128C356.257 326.749 351.604 329.254 345.879 326.033C340.868 323.17 336.753 316.729 335.679 310.645L310.629 296.151L310.808 248.376L285.578 233.882C284.683 238.713 280.389 240.503 275.379 237.461C269.653 234.24 265.001 226.188 265.001 219.567C265.001 212.947 269.653 210.263 275.379 213.663C280.389 216.526 284.683 223.146 285.578 229.051L298.282 236.387L298.461 195.769V193.443V183.96L281.82 174.297V202.927L244.423 181.276L244.244 243.366L281.82 265.017C282.715 260.185 287.009 258.396 292.02 261.438C297.745 264.659 302.398 272.711 302.398 279.331C302.398 285.952 297.745 288.636 292.02 285.236C287.009 282.373 282.715 275.753 281.82 269.848L240.129 245.692L240.308 178.771L223.488 169.108C222.414 173.939 218.299 175.729 213.289 172.866C207.563 169.466 202.91 161.414 202.91 154.972C202.91 148.352 207.563 145.668 213.289 149.068C218.299 151.93 222.414 158.551 223.488 164.456L277.705 195.769V171.971L252.654 157.477C251.58 162.309 247.465 164.098 242.455 161.056C236.729 157.835 232.077 149.783 232.077 143.163C232.077 136.542 236.729 133.858 242.455 137.258C247.465 140.121 251.759 146.741 252.654 152.646L265.358 159.983L265.537 121.512C260.706 117.575 257.306 110.776 257.306 105.05C257.306 98.4293 261.959 95.7453 267.685 99.145C273.41 102.366 278.063 110.597 278.063 117.038C278.063 122.764 274.484 125.448 269.653 124.017L269.474 162.488L298.461 179.307V155.151C293.809 151.394 290.23 144.415 290.23 138.689C290.23 132.069 294.882 129.385 300.608 132.785C306.334 136.005 310.986 144.236 310.986 150.678C310.986 156.404 307.408 159.267 302.577 157.656L302.398 196.127L315.102 203.463C315.997 198.632 320.291 196.843 325.301 199.885C331.027 203.106 335.679 211.158 335.679 217.778C335.679 224.399 331.027 227.083 325.301 223.683C320.291 220.82 315.997 214.199 315.102 208.295L302.398 200.958L302.219 239.071L328.343 254.102L349.099 242.113L364.488 251.06L364.667 203.285L347.847 193.622C346.773 198.453 342.658 200.243 337.648 197.201C331.922 193.98 327.269 185.928 327.269 179.307C327.269 172.687 331.922 170.003 337.648 173.403C342.658 176.265 346.773 182.707 347.847 188.791L368.782 200.958L368.603 253.386L385.423 263.048C386.497 258.217 390.612 256.428 395.622 259.47C401.348 262.691 406 270.743 406 277.363C406 283.984 401.348 286.668 395.622 283.268C390.612 280.405 386.318 273.784 385.423 267.88L372.719 260.543L372.54 298.656L393.475 310.824C395.085 305.993 399.201 304.203 404.211 307.066ZM261.243 107.555C261.243 111.491 264.106 116.323 267.506 118.291C270.905 120.259 273.768 118.649 273.768 114.712C273.768 110.776 270.905 105.945 267.506 103.976C264.106 101.829 261.243 103.439 261.243 107.555ZM404.211 326.212C407.611 328.18 410.474 326.57 410.474 322.633C410.474 318.697 407.79 313.866 404.211 311.897C400.811 309.929 397.948 311.539 397.948 315.476C397.948 319.413 400.811 324.244 404.211 326.212ZM395.98 264.122C392.58 262.154 389.717 263.764 389.717 267.701C389.717 271.637 392.58 276.468 395.98 278.437C399.38 280.405 402.243 278.795 402.243 274.858C402.243 270.921 399.38 266.09 395.98 264.122ZM242.455 156.404C245.855 158.372 248.718 156.762 248.718 152.825C248.718 148.889 245.855 144.057 242.455 142.089C239.055 140.121 236.192 141.731 236.192 145.668C236.192 149.604 239.055 154.436 242.455 156.404ZM294.525 141.016C294.525 144.952 297.388 149.783 300.787 151.752C304.187 153.72 307.05 152.109 307.05 148.173C307.05 144.236 304.187 139.405 300.787 137.437C297.209 135.469 294.525 137.079 294.525 141.016ZM338.005 192.37C341.405 194.338 344.268 192.727 344.268 188.791C344.268 184.854 341.405 180.023 338.005 178.055C334.606 176.087 331.743 177.697 331.743 181.634C331.743 185.57 334.606 190.401 338.005 192.37ZM275.558 232.809C278.957 234.777 281.82 233.166 281.82 229.23C281.82 225.293 278.957 220.462 275.558 218.494C272.158 216.526 269.295 218.136 269.295 222.073C269.295 226.009 271.979 230.84 275.558 232.809ZM292.02 266.269C288.62 264.301 285.757 265.911 285.757 269.848C285.757 273.784 288.62 278.616 292.02 280.584C295.419 282.552 298.282 280.942 298.282 277.005C298.282 273.069 295.419 268.237 292.02 266.269ZM346.058 306.887C342.658 304.919 339.795 306.529 339.795 310.466C339.795 314.402 342.479 319.234 346.058 321.202C349.457 323.17 352.32 321.56 352.32 317.623C352.141 313.866 349.457 309.034 346.058 306.887ZM213.289 168.213C216.688 170.182 219.551 168.571 219.551 164.635C219.551 160.698 216.867 155.867 213.289 153.899C209.889 151.931 207.026 153.541 207.026 157.477C207.026 161.414 209.889 166.245 213.289 168.213ZM325.48 204.358C322.08 202.39 319.217 204 319.217 207.937C319.217 211.873 322.08 216.705 325.48 218.673C328.88 220.641 331.743 219.031 331.743 215.094C331.743 211.158 328.88 206.326 325.48 204.358Z"/>
</mask>
<path d="M404.211 307.066C409.937 310.287 414.589 318.518 414.589 324.96C414.589 331.58 409.937 334.264 404.211 330.864C399.201 328.001 394.906 321.381 394.012 315.476L368.782 300.982L368.961 258.038L351.068 247.66L330.311 259.649L314.923 250.702L314.744 293.646L335.679 305.814C336.753 300.982 340.868 299.193 345.879 302.235C351.604 305.456 356.257 313.508 356.257 320.128C356.257 326.749 351.604 329.254 345.879 326.033C340.868 323.17 336.753 316.729 335.679 310.645L310.629 296.151L310.808 248.376L285.578 233.882C284.683 238.713 280.389 240.503 275.379 237.461C269.653 234.24 265.001 226.188 265.001 219.567C265.001 212.947 269.653 210.263 275.379 213.663C280.389 216.526 284.683 223.146 285.578 229.051L298.282 236.387L298.461 195.769V193.443V183.96L281.82 174.297V202.927L244.423 181.276L244.244 243.366L281.82 265.017C282.715 260.185 287.009 258.396 292.02 261.438C297.745 264.659 302.398 272.711 302.398 279.331C302.398 285.952 297.745 288.636 292.02 285.236C287.009 282.373 282.715 275.753 281.82 269.848L240.129 245.692L240.308 178.771L223.488 169.108C222.414 173.939 218.299 175.729 213.289 172.866C207.563 169.466 202.91 161.414 202.91 154.972C202.91 148.352 207.563 145.668 213.289 149.068C218.299 151.93 222.414 158.551 223.488 164.456L277.705 195.769V171.971L252.654 157.477C251.58 162.309 247.465 164.098 242.455 161.056C236.729 157.835 232.077 149.783 232.077 143.163C232.077 136.542 236.729 133.858 242.455 137.258C247.465 140.121 251.759 146.741 252.654 152.646L265.358 159.983L265.537 121.512C260.706 117.575 257.306 110.776 257.306 105.05C257.306 98.4293 261.959 95.7453 267.685 99.145C273.41 102.366 278.063 110.597 278.063 117.038C278.063 122.764 274.484 125.448 269.653 124.017L269.474 162.488L298.461 179.307V155.151C293.809 151.394 290.23 144.415 290.23 138.689C290.23 132.069 294.882 129.385 300.608 132.785C306.334 136.005 310.986 144.236 310.986 150.678C310.986 156.404 307.408 159.267 302.577 157.656L302.398 196.127L315.102 203.463C315.997 198.632 320.291 196.843 325.301 199.885C331.027 203.106 335.679 211.158 335.679 217.778C335.679 224.399 331.027 227.083 325.301 223.683C320.291 220.82 315.997 214.199 315.102 208.295L302.398 200.958L302.219 239.071L328.343 254.102L349.099 242.113L364.488 251.06L364.667 203.285L347.847 193.622C346.773 198.453 342.658 200.243 337.648 197.201C331.922 193.98 327.269 185.928 327.269 179.307C327.269 172.687 331.922 170.003 337.648 173.403C342.658 176.265 346.773 182.707 347.847 188.791L368.782 200.958L368.603 253.386L385.423 263.048C386.497 258.217 390.612 256.428 395.622 259.47C401.348 262.691 406 270.743 406 277.363C406 283.984 401.348 286.668 395.622 283.268C390.612 280.405 386.318 273.784 385.423 267.88L372.719 260.543L372.54 298.656L393.475 310.824C395.085 305.993 399.201 304.203 404.211 307.066ZM261.243 107.555C261.243 111.491 264.106 116.323 267.506 118.291C270.905 120.259 273.768 118.649 273.768 114.712C273.768 110.776 270.905 105.945 267.506 103.976C264.106 101.829 261.243 103.439 261.243 107.555ZM404.211 326.212C407.611 328.18 410.474 326.57 410.474 322.633C410.474 318.697 407.79 313.866 404.211 311.897C400.811 309.929 397.948 311.539 397.948 315.476C397.948 319.413 400.811 324.244 404.211 326.212ZM395.98 264.122C392.58 262.154 389.717 263.764 389.717 267.701C389.717 271.637 392.58 276.468 395.98 278.437C399.38 280.405 402.243 278.795 402.243 274.858C402.243 270.921 399.38 266.09 395.98 264.122ZM242.455 156.404C245.855 158.372 248.718 156.762 248.718 152.825C248.718 148.889 245.855 144.057 242.455 142.089C239.055 140.121 236.192 141.731 236.192 145.668C236.192 149.604 239.055 154.436 242.455 156.404ZM294.525 141.016C294.525 144.952 297.388 149.783 300.787 151.752C304.187 153.72 307.05 152.109 307.05 148.173C307.05 144.236 304.187 139.405 300.787 137.437C297.209 135.469 294.525 137.079 294.525 141.016ZM338.005 192.37C341.405 194.338 344.268 192.727 344.268 188.791C344.268 184.854 341.405 180.023 338.005 178.055C334.606 176.087 331.743 177.697 331.743 181.634C331.743 185.57 334.606 190.401 338.005 192.37ZM275.558 232.809C278.957 234.777 281.82 233.166 281.82 229.23C281.82 225.293 278.957 220.462 275.558 218.494C272.158 216.526 269.295 218.136 269.295 222.073C269.295 226.009 271.979 230.84 275.558 232.809ZM292.02 266.269C288.62 264.301 285.757 265.911 285.757 269.848C285.757 273.784 288.62 278.616 292.02 280.584C295.419 282.552 298.282 280.942 298.282 277.005C298.282 273.069 295.419 268.237 292.02 266.269ZM346.058 306.887C342.658 304.919 339.795 306.529 339.795 310.466C339.795 314.402 342.479 319.234 346.058 321.202C349.457 323.17 352.32 321.56 352.32 317.623C352.141 313.866 349.457 309.034 346.058 306.887ZM213.289 168.213C216.688 170.182 219.551 168.571 219.551 164.635C219.551 160.698 216.867 155.867 213.289 153.899C209.889 151.931 207.026 153.541 207.026 157.477C207.026 161.414 209.889 166.245 213.289 168.213ZM325.48 204.358C322.08 202.39 319.217 204 319.217 207.937C319.217 211.873 322.08 216.705 325.48 218.673C328.88 220.641 331.743 219.031 331.743 215.094C331.743 211.158 328.88 206.326 325.48 204.358Z" fill="white" stroke="#000A04" stroke-width="2" mask="url(#path-46-inside-1_19_408)"/>
</svg>
