<svg width="524" height="320" viewBox="0 0 524 320" fill="none" xmlns="http://www.w3.org/2000/svg">
<g style="mix-blend-mode:multiply">
<path d="M524 43L0 43L-2.28173e-05 304C-2.35899e-05 312.837 7.16342 320 16 320L508 320C516.837 320 524 312.837 524 304L524 43Z" fill="#009A42"/>
</g>
<path d="M508 3L16 2.99996C8.82031 2.99995 3 8.82025 3 16L3 45L521 45L521 16C521 8.82031 515.18 3 508 3Z" stroke="#009A42" stroke-width="6"/>
<g style="mix-blend-mode:soft-light">
<g style="mix-blend-mode:multiply">
<rect width="76.6798" height="17.3913" rx="8.69565" transform="matrix(-1 -8.74228e-08 -8.74228e-08 1 152.68 132.668)" fill="#38EDAC"/>
</g>
<g style="mix-blend-mode:multiply">
<rect width="33.9921" height="17.3913" rx="8.69565" transform="matrix(-1 -8.74228e-08 -8.74228e-08 1 195.672 132.668)" fill="#38EDAC"/>
</g>
<g style="mix-blend-mode:multiply">
<rect width="60.8695" height="17.3913" rx="8.69565" transform="matrix(-1 -8.74228e-08 -8.74228e-08 1 265.542 132.668)" fill="#38EDAC"/>
</g>
<g style="mix-blend-mode:multiply">
<rect width="76.6798" height="17.3913" rx="8.69565" transform="matrix(-1 -8.74228e-08 -8.74228e-08 1 190.68 215.1)" fill="#38EDAC"/>
</g>
<g style="mix-blend-mode:multiply">
<rect width="40" height="17" rx="8.5" transform="matrix(-1 -8.74228e-08 -8.74228e-08 1 239.68 215.1)" fill="#38EDAC"/>
</g>
<g style="mix-blend-mode:multiply">
<rect width="60.8695" height="17.3913" rx="8.69565" transform="matrix(-1 -8.74228e-08 -8.74228e-08 1 309.549 215.1)" fill="#38EDAC"/>
</g>
<g style="mix-blend-mode:multiply">
<rect width="60.8695" height="17.3913" rx="8.69565" transform="matrix(-1 -8.74228e-08 -8.74228e-08 1 114.87 242)" fill="#38EDAC"/>
</g>
<g style="mix-blend-mode:multiply">
<rect width="60.8695" height="17.3913" rx="8.69565" transform="matrix(-1 -8.74228e-08 -8.74228e-08 1 114.87 105)" fill="#38EDAC"/>
</g>
<g style="mix-blend-mode:multiply">
<rect width="60.8695" height="17.3913" rx="8.69565" transform="matrix(-1 -8.74228e-08 -8.74228e-08 1 97 78)" fill="#38EDAC"/>
</g>
<g style="mix-blend-mode:multiply">
<rect width="60.8695" height="17.3913" rx="8.69565" transform="matrix(-1 -8.74228e-08 -8.74228e-08 1 97 270)" fill="#38EDAC"/>
</g>
<g style="mix-blend-mode:multiply">
<rect width="60.8695" height="17.3913" rx="8.69565" transform="matrix(-1 -8.74228e-08 -8.74228e-08 1 176.022 160)" fill="#38EDAC"/>
</g>
<g style="mix-blend-mode:multiply">
<rect width="60.8695" height="17.3913" rx="8.69565" transform="matrix(-1 -8.74228e-08 -8.74228e-08 1 245.892 160)" fill="#38EDAC"/>
</g>
<g style="mix-blend-mode:multiply">
<rect width="41.8972" height="17.3913" rx="8.69565" transform="matrix(-1 -8.74228e-08 -8.74228e-08 1 296.789 160)" fill="#38EDAC"/>
</g>
<g style="mix-blend-mode:multiply">
<rect width="95.6521" height="17.3913" rx="8.69565" transform="matrix(-1 -8.74228e-08 -8.74228e-08 1 210.805 187.213)" fill="#38EDAC"/>
</g>
<g style="mix-blend-mode:multiply">
<rect width="55" height="18" rx="9" transform="matrix(-1 -8.74228e-08 -8.74228e-08 1 274.805 187.213)" fill="#38EDAC"/>
</g>
</g>
</svg>
