<svg width="96" height="96" viewBox="0 0 96 96" fill="none" xmlns="http://www.w3.org/2000/svg">
<path d="M53.51 79.0702L12.62 52.6142C8.148 49.2082 7.624 39.2082 12.142 34.7842L39.74 16.9282L87 47.5102L62.866 63.1262C61.3851 63.9713 60.1573 65.1971 59.3098 66.6766C58.4623 68.1561 58.0259 69.8353 58.046 71.5402C58.03 74.4742 59.742 78.4182 62.866 77.6162L87 61.9982L76.35 55.1082" stroke="#009A42" stroke-width="2" stroke-linecap="round"/>
<mask id="path-2-inside-1_430_1010" fill="white">
<path d="M39.74 16.9282L42.442 43.7882L87 47.5082"/>
</mask>
<path d="M41.73 16.728C41.6194 15.629 40.6388 14.8277 39.5398 14.9383C38.4408 15.0488 37.6395 16.0294 37.75 17.1284L41.73 16.728ZM42.442 43.7882L40.452 43.9884L40.6185 45.6429L42.2756 45.7813L42.442 43.7882ZM86.8336 49.5013C87.9343 49.5932 88.9012 48.7754 88.9931 47.6746C89.085 46.5739 88.2671 45.6071 87.1664 45.5152L86.8336 49.5013ZM37.75 17.1284L40.452 43.9884L44.432 43.588L41.73 16.728L37.75 17.1284ZM42.2756 45.7813L86.8336 49.5013L87.1664 45.5152L42.6084 41.7952L42.2756 45.7813Z" fill="#009A42" mask="url(#path-2-inside-1_430_1010)"/>
</svg>
