<svg width="208" height="43" viewBox="0 0 208 43" fill="none" xmlns="http://www.w3.org/2000/svg">
<g style="mix-blend-mode:luminosity">
<path d="M10.8057 40.6844V35.46H21.7065V6.18145H10.8057V0.957031H35.7608V6.18145H27.722V35.46H35.7608V40.6844H10.8057Z" fill="#626262"/>
<path d="M0.0483398 40.6844V0.957031H11.2043C13.8293 0.957031 16.1078 1.46496 18.0401 2.48082C19.9724 3.4604 21.467 4.8572 22.5243 6.67124C23.6181 8.48528 24.1649 10.6258 24.1649 13.0929V28.4941C24.1649 30.9248 23.6181 33.0654 22.5243 34.9158C21.467 36.7661 19.9724 38.1992 18.0401 39.215C16.1078 40.1946 13.8293 40.6844 11.2043 40.6844H0.0483398ZM5.95444 35.3511H11.2043C13.3918 35.3511 15.1053 34.7525 16.3448 33.5552C17.6209 32.3217 18.2588 30.6347 18.2588 28.4941V13.0929C18.2588 10.9887 17.6209 9.33787 16.3448 8.14061C15.1053 6.90706 13.3918 6.29029 11.2043 6.29029H5.95444V35.3511Z" fill="#626262"/>
<path d="M50.7842 24.2347V17.0975H51.6138C51.8101 16.7779 52.0152 16.3429 52.2293 15.7925C52.4612 15.2243 52.6575 14.5764 52.818 13.8484C52.9786 13.1027 53.0589 12.3038 53.0589 11.4516L53.2195 1.06526H64.0578V17.0975H65.6635V24.2347H61.9169V20.5063H54.5308V24.2347H50.7842ZM55.5477 17.0975H60.3112V4.47411H56.9125L56.8055 11.4249C56.7877 12.6677 56.6359 13.8041 56.3505 14.8338C56.0651 15.8458 55.7975 16.6004 55.5477 17.0975ZM68.4362 24.2347V17.0975H69.2658C69.4621 16.7779 69.6672 16.3429 69.8813 15.7925C70.1132 15.2243 70.3095 14.5764 70.47 13.8484C70.6306 13.1027 70.7109 12.3038 70.7109 11.4516L70.8715 1.06526H81.7098V17.0975H83.3155V24.2347H79.5689V20.5063H72.1828V24.2347H68.4362ZM73.1997 17.0975H77.9632V4.47411H74.5645L74.4575 11.4249C74.4397 12.6677 74.2879 13.8041 74.0025 14.8338C73.7171 15.8458 73.4495 16.6004 73.1997 17.0975ZM89.246 13.5821V9.85368H97.8096V13.5821H89.246ZM104.757 20.5063V1.06526H108.29V9.58737C108.29 10.191 108.263 10.8923 108.209 11.6913C108.174 12.4902 108.129 13.2802 108.076 14.0615C108.022 14.8427 107.968 15.5262 107.915 16.1121L112.919 1.06526H117.603V20.5063H114.07V12.5168C114.07 11.8954 114.088 11.1586 114.124 10.3064C114.177 9.45421 114.24 8.59312 114.311 7.72316C114.382 6.8532 114.445 6.09863 114.498 5.45947L109.44 20.5063H104.757ZM122.57 20.5063V1.06526H126.584V8.52211H131.08V1.06526H135.094V20.5063H131.08V12.2505H126.584V20.5063H122.57ZM144.878 21.1721V19.3079C143.772 19.3079 142.791 19.0682 141.934 18.5888C141.095 18.0918 140.436 17.4081 139.954 16.5382C139.49 15.6505 139.258 14.6297 139.258 13.4756V7.69653C139.258 6.52474 139.49 5.50386 139.954 4.6339C140.436 3.76393 141.095 3.08926 141.934 2.6099C142.791 2.11278 143.772 1.86421 144.878 1.86421V0H148.089V1.86421C149.213 1.86421 150.194 2.11278 151.033 2.6099C151.872 3.08926 152.523 3.76393 152.987 4.6339C153.468 5.50386 153.709 6.52474 153.709 7.69653V13.4756C153.709 14.6297 153.468 15.6505 152.987 16.5382C152.523 17.4081 151.872 18.0918 151.033 18.5888C150.194 19.0682 149.213 19.3079 148.089 19.3079V21.1721H144.878ZM145.039 16.2186V4.92684C144.574 4.92684 144.156 5.04225 143.781 5.27305C143.424 5.50386 143.148 5.83232 142.951 6.25842C142.755 6.66678 142.657 7.14614 142.657 7.69653V13.4756C142.657 14.0259 142.755 14.5053 142.951 14.9137C143.148 15.3221 143.424 15.6417 143.781 15.8724C144.156 16.1032 144.574 16.2186 145.039 16.2186ZM147.929 16.2186C148.411 16.2186 148.829 16.1032 149.187 15.8724C149.544 15.6417 149.82 15.3221 150.016 14.9137C150.213 14.5053 150.311 14.0259 150.311 13.4756V7.69653C150.311 7.14614 150.213 6.66678 150.016 6.25842C149.82 5.83232 149.544 5.50386 149.187 5.27305C148.829 5.04225 148.411 4.92684 147.929 4.92684V16.2186ZM164.136 20.7726C162.834 20.7726 161.701 20.5329 160.737 20.0536C159.774 19.5565 159.024 18.8729 158.489 18.0029C157.971 17.1152 157.713 16.0855 157.713 14.9137V6.6579C157.713 5.48611 157.971 4.46522 158.489 3.59526C159.024 2.70754 159.774 2.024 160.737 1.54463C161.701 1.04751 162.834 0.798948 164.136 0.798948C165.456 0.798948 166.589 1.04751 167.534 1.54463C168.498 2.024 169.238 2.70754 169.756 3.59526C170.291 4.46522 170.559 5.48611 170.559 6.6579V14.9137C170.559 16.0855 170.291 17.1152 169.756 18.0029C169.238 18.8729 168.498 19.5565 167.534 20.0536C166.589 20.5329 165.456 20.7726 164.136 20.7726ZM164.136 17.3105C164.939 17.3105 165.537 17.1064 165.929 16.698C166.34 16.2719 166.544 15.6771 166.544 14.9137V6.6579C166.544 5.8767 166.348 5.28193 165.956 4.87358C165.563 4.46522 164.956 4.26105 164.136 4.26105C163.315 4.26105 162.708 4.46522 162.316 4.87358C161.924 5.28193 161.727 5.8767 161.727 6.6579V14.9137C161.727 15.6771 161.924 16.2719 162.316 16.698C162.727 17.1064 163.333 17.3105 164.136 17.3105ZM175.526 20.5063V1.06526H182.189C183.563 1.06526 184.758 1.3227 185.775 1.83758C186.81 2.35246 187.604 3.07151 188.157 3.99474C188.728 4.91796 189.013 6.00099 189.013 7.24379C189.013 8.46884 188.728 9.55186 188.157 10.4928C187.586 11.416 186.792 12.1351 185.775 12.65C184.758 13.1649 183.563 13.4223 182.189 13.4223H179.54V20.5063H175.526ZM179.54 9.82705H182.189C183.046 9.82705 183.724 9.59625 184.223 9.13463C184.741 8.65526 184.999 8.02499 184.999 7.24379C184.999 6.46259 184.741 5.8412 184.223 5.37958C183.724 4.90021 183.046 4.66053 182.189 4.66053H179.54V9.82705ZM192.535 20.5063V1.06526H197.058L198.851 7.19053C199.048 7.82968 199.19 8.38895 199.279 8.86832C199.386 9.34768 199.449 9.68501 199.467 9.88032C199.484 9.68501 199.538 9.34768 199.627 8.86832C199.734 8.38895 199.877 7.82968 200.055 7.19053L201.822 1.06526H206.344V20.5063H202.678V15.18C202.678 14.2035 202.695 13.1826 202.731 12.1174C202.785 11.0344 202.848 9.96021 202.919 8.89495C202.99 7.82968 203.07 6.83543 203.16 5.91221C203.249 4.97122 203.329 4.15453 203.4 3.46211L201.153 12.2505H197.754L195.399 3.46211C195.488 4.11901 195.577 4.90909 195.666 5.83232C195.756 6.73779 195.836 7.72316 195.907 8.78842C195.997 9.83593 196.068 10.9101 196.121 12.0108C196.175 13.1117 196.202 14.168 196.202 15.18V20.5063H192.535Z" fill="#626262"/>
<path d="M56.1447 39.6119V42.4585H55.0905V40.6604H50.4736V33.3042H51.6405V39.6119H54.0082V33.3042H55.1751V39.6119H56.1447ZM59.7778 33.3042H60.9447V38.3718L63.0136 33.3042H64.4793V40.6604H63.3124V35.3279L61.1307 40.6604H59.7778V33.3042ZM74.9455 36.9061C74.9455 37.2707 74.8929 37.6051 74.7876 37.9096C74.6862 38.2102 74.5396 38.477 74.348 38.7099C74.1562 38.9392 73.9251 39.1328 73.6546 39.2906C73.384 39.4484 73.0833 39.5556 72.7526 39.6119V40.6604H71.5969V39.6119C70.9355 39.4879 70.4112 39.1853 70.0241 38.7044C69.6371 38.2233 69.4435 37.624 69.4435 36.9061C69.4435 36.553 69.4923 36.226 69.5901 35.9253C69.6916 35.6247 69.8363 35.3579 70.0241 35.1249C70.2121 34.892 70.4375 34.6965 70.7006 34.5387C70.9675 34.3808 71.2662 34.27 71.5969 34.2061V33.3042H72.7526V34.1948C73.0833 34.2588 73.384 34.3677 73.6546 34.5217C73.9251 34.6721 74.1562 34.8675 74.348 35.108C74.5396 35.3447 74.6862 35.6153 74.7876 35.9198C74.8929 36.2241 74.9455 36.553 74.9455 36.9061ZM73.7842 36.9061C73.7842 36.5228 73.6921 36.1866 73.508 35.8971C73.3276 35.6078 73.0758 35.4067 72.7526 35.2941V38.5239C73.0758 38.4075 73.3276 38.2083 73.508 37.9264C73.6921 37.6408 73.7842 37.3007 73.7842 36.9061ZM70.6048 36.9061C70.6048 37.2932 70.6893 37.6296 70.8585 37.9152C71.0276 38.197 71.2737 38.3962 71.5969 38.5126V35.3053C71.2737 35.4181 71.0276 35.619 70.8585 35.9085C70.6893 36.1978 70.6048 36.5304 70.6048 36.9061ZM84.8648 35.5026C84.8648 36.2391 84.6412 36.7878 84.1941 37.1486C83.7468 37.5056 83.1229 37.6841 82.3225 37.6841H81.0541V40.6604H79.8871V33.3042H82.3112C83.1192 33.3042 83.7468 33.4903 84.1941 33.8622C84.6412 34.2305 84.8648 34.7773 84.8648 35.5026ZM83.698 35.4857C83.698 35.1099 83.574 34.828 83.3259 34.6402C83.0816 34.4522 82.7471 34.3583 82.3225 34.3583H81.0541V36.63H82.3225C82.7471 36.63 83.0816 36.536 83.3259 36.3481C83.574 36.1602 83.698 35.8728 83.698 35.4857ZM89.4796 36.9794C89.4796 36.4872 89.5322 36.0118 89.6374 35.5534C89.7427 35.0948 89.9061 34.6909 90.1278 34.3414C90.3496 33.9919 90.6389 33.7119 90.996 33.5015C91.3568 33.2873 91.7909 33.1802 92.2982 33.1802C92.8056 33.1802 93.2377 33.2873 93.5948 33.5015C93.9556 33.7119 94.2487 33.9919 94.4742 34.3414C94.6997 34.6909 94.8632 35.0948 94.9647 35.5534C95.0661 36.0118 95.1168 36.4872 95.1168 36.9794C95.1168 37.4718 95.0661 37.9471 94.9647 38.4056C94.8632 38.8604 94.7015 39.2661 94.4799 39.6232C94.2581 39.9765 93.9668 40.2601 93.606 40.4744C93.249 40.6848 92.8131 40.79 92.2982 40.79C91.7833 40.79 91.3455 40.6848 90.9847 40.4744C90.6277 40.2601 90.3364 39.9765 90.111 39.6232C89.8892 39.2661 89.7295 38.8604 89.6317 38.4056C89.5302 37.9471 89.4796 37.4718 89.4796 36.9794ZM90.6464 36.9794C90.6464 37.3102 90.6709 37.6408 90.7197 37.9715C90.7724 38.3023 90.8589 38.5991 90.979 38.8622C91.1031 39.1215 91.2703 39.3319 91.4808 39.4936C91.695 39.6551 91.9675 39.7359 92.2982 39.7359C92.629 39.7359 92.8995 39.6551 93.1099 39.4936C93.3242 39.3319 93.4914 39.1215 93.6117 38.8622C93.7357 38.5991 93.8221 38.3023 93.871 37.9715C93.9236 37.6408 93.9499 37.3102 93.9499 36.9794C93.9499 36.6488 93.9236 36.3199 93.871 35.993C93.8221 35.666 93.7357 35.3711 93.6117 35.108C93.4914 34.845 93.3224 34.6326 93.1044 34.4711C92.8901 34.3094 92.6215 34.2286 92.2982 34.2286C91.7608 34.2286 91.3511 34.4711 91.0693 34.9558C90.7874 35.4406 90.6464 36.1151 90.6464 36.9794ZM104.963 38.6424C104.963 39.3113 104.736 39.8148 104.281 40.153C103.826 40.4912 103.18 40.6604 102.342 40.6604H99.9965V33.3042H102.212C102.52 33.3042 102.823 33.3305 103.12 33.3831C103.416 33.432 103.681 33.5259 103.914 33.6649C104.151 33.804 104.343 33.9994 104.489 34.2511C104.636 34.4992 104.709 34.8224 104.709 35.2208C104.709 35.5928 104.613 35.9328 104.422 36.2411C104.234 36.5492 103.948 36.7709 103.565 36.9061C104.035 37.0527 104.384 37.2575 104.613 37.5206C104.846 37.7836 104.963 38.1575 104.963 38.6424ZM103.554 35.3729C103.554 35.1588 103.512 34.984 103.43 34.8487C103.351 34.7134 103.247 34.6101 103.12 34.5387C102.992 34.4636 102.849 34.4146 102.691 34.3921C102.533 34.3696 102.374 34.3583 102.212 34.3583H101.163V36.3875H102.212C102.374 36.3875 102.533 36.3764 102.691 36.3537C102.849 36.3312 102.992 36.2842 103.12 36.2129C103.247 36.1377 103.351 36.0324 103.43 35.8971C103.512 35.7618 103.554 35.5872 103.554 35.3729ZM103.807 38.5239C103.807 38.1557 103.678 37.8832 103.418 37.7066C103.163 37.53 102.804 37.4417 102.342 37.4417H101.163V39.6119H102.342C102.804 39.6119 103.163 39.5236 103.418 39.3469C103.678 39.1666 103.807 38.8922 103.807 38.5239ZM113.344 38.4676C113.344 39.1891 113.146 39.7359 112.751 40.108C112.36 40.4762 111.812 40.6604 111.105 40.6604H109.662V33.3042H110.823V36.2861H111.105C111.812 36.2861 112.36 36.4647 112.751 36.8216C113.146 37.1786 113.344 37.7273 113.344 38.4676ZM112.176 38.4789C112.176 38.0955 112.081 37.8099 111.889 37.6221C111.697 37.4303 111.44 37.3345 111.117 37.3345H110.823V39.6119H111.117C111.44 39.6119 111.697 39.5179 111.889 39.3301C112.081 39.1383 112.176 38.8547 112.176 38.4789ZM113.975 33.3042H115.141V40.6604H113.975V33.3042ZM124.807 40.6604H120.106V33.3042H124.807V34.3583H121.273V36.3875H124.03V37.4417H121.273V39.6119H124.807V40.6604ZM145.193 35.5026C145.193 36.2391 144.969 36.7878 144.523 37.1486C144.075 37.5056 143.451 37.6841 142.65 37.6841H141.382V40.6604H140.215V33.3042H142.639C143.448 33.3042 144.075 33.4903 144.523 33.8622C144.969 34.2305 145.193 34.7773 145.193 35.5026ZM144.026 35.4857C144.026 35.1099 143.901 34.828 143.654 34.6402C143.41 34.4522 143.075 34.3583 142.65 34.3583H141.382V36.63H142.65C143.075 36.63 143.41 36.536 143.654 36.3481C143.901 36.1602 144.026 35.8728 144.026 35.4857ZM154.971 40.6604H150.27V33.3042H154.971V34.3583H151.437V36.3875H154.194V37.4417H151.437V39.6119H154.971V40.6604ZM162.088 33.3042H163.256V39.6119H164.249V33.3042H165.415V40.6604H159.935V33.3042H161.097V39.6119H162.088V33.3042ZM175.08 40.6604H170.379V33.3042H175.08V34.3583H171.546V36.3875H174.303V37.4417H171.546V39.6119H175.08V40.6604ZM185.135 40.6604H183.969V37.4417H181.601V40.6604H180.434V33.3042H181.601V36.3875H183.969V33.3042H185.135V40.6604ZM190.488 33.3042H191.656V38.3718L193.725 33.3042H195.19V40.6604H194.024V35.3279L191.842 40.6604H190.488V33.3042ZM202.262 37.6221C201.98 37.5845 201.717 37.515 201.474 37.4135C201.232 37.3083 201.02 37.1674 200.836 36.9907C200.656 36.8141 200.515 36.6037 200.414 36.3594C200.316 36.1114 200.267 35.8258 200.267 35.5026C200.267 34.7773 200.49 34.2305 200.938 33.8622C201.385 33.4903 202.013 33.3042 202.821 33.3042H205.244V40.6604H204.078V37.6841H203.548L201.642 40.6604H200.166L202.262 37.6221ZM201.434 35.4857C201.434 35.8728 201.556 36.1602 201.8 36.3481C202.049 36.536 202.388 36.63 202.821 36.63H204.078V34.3583H202.821C202.388 34.3583 202.049 34.4522 201.8 34.6402C201.556 34.828 201.434 35.1099 201.434 35.4857Z" fill="#626262"/>
</g>
</svg>
