<svg width="217" height="43" viewBox="0 0 217 43" fill="none" xmlns="http://www.w3.org/2000/svg">
<g clip-path="url(#clip0_181_354)">
<path d="M59.6022 38.8807C59.6022 39.402 59.5468 39.8993 59.4357 40.3727C59.3287 40.8422 59.1543 41.256 58.9124 41.6141C58.6746 41.9682 58.3653 42.2506 57.9847 42.4615C57.6082 42.6723 57.1522 42.7778 56.6171 42.7778H54.0957V34.9897H56.6171C57.1443 34.9897 57.5962 35.0971 57.9729 35.312C58.3535 35.5228 58.6627 35.8053 58.9006 36.1595C59.1423 36.5135 59.3188 36.9253 59.4298 37.3948C59.5447 37.8642 59.6022 38.3596 59.6022 38.8807ZM58.3713 38.8807C58.3713 37.9815 58.2187 37.2953 57.9134 36.8219C57.6082 36.3444 57.1761 36.1057 56.6171 36.1057H55.3266V41.6678H56.6171C57.1761 41.6678 57.6082 41.425 57.9134 40.9397C58.2187 40.4543 58.3713 39.7679 58.3713 38.8807ZM67.1733 42.7778H63.4507V41.6678H64.6758V36.1057H63.4507V34.9897H67.1733V36.1057H65.9067V41.6678H67.1733V42.7778ZM77.0874 38.9047C77.0874 39.4338 77.0338 39.9391 76.9268 40.4205C76.8237 40.9019 76.6513 41.3276 76.4094 41.6976C76.1716 42.0676 75.8623 42.3641 75.4817 42.5869C75.1052 42.8057 74.6453 42.915 74.1021 42.915C73.559 42.915 73.0991 42.8037 72.7225 42.5809C72.3458 42.354 72.0366 42.0557 71.7949 41.6856C71.557 41.3156 71.3846 40.888 71.2775 40.4025C71.1744 39.9172 71.1228 39.4139 71.1228 38.8927C71.1228 38.3716 71.1744 37.8682 71.2775 37.3828C71.3846 36.8974 71.557 36.4677 71.7949 36.0937C72.0366 35.7198 72.3458 35.4214 72.7225 35.1985C73.0991 34.9718 73.559 34.8584 74.1021 34.8584C74.2568 34.8584 74.4154 34.8803 74.5778 34.924C74.7404 34.9678 74.895 35.0355 75.0417 35.1269C75.1884 35.2144 75.3172 35.3239 75.4283 35.4552C75.5433 35.5865 75.6245 35.7377 75.6721 35.9088V34.9897H76.784V37.7529H75.6721C75.6721 37.5101 75.6343 37.2813 75.5591 37.0665C75.4837 36.8477 75.3768 36.6568 75.2379 36.4936C75.0992 36.3304 74.9327 36.2032 74.7385 36.1117C74.5442 36.0162 74.3321 35.9684 74.1021 35.9684C73.7532 35.9684 73.4679 36.0559 73.2458 36.2311C73.0238 36.4061 72.8454 36.6328 72.7106 36.9114C72.5758 37.1899 72.4807 37.5022 72.4251 37.8483C72.3736 38.1945 72.3479 38.5425 72.3479 38.8927C72.3479 39.2428 72.3736 39.591 72.4251 39.9371C72.4807 40.2832 72.5738 40.5955 72.7046 40.8741C72.8355 41.1486 73.0138 41.3714 73.2399 41.5425C73.4658 41.7135 73.7532 41.799 74.1021 41.799C74.6056 41.799 75.012 41.6379 75.3212 41.3156C75.6304 40.9933 75.8425 40.4941 75.9574 39.8177H74.3222V38.7077H77.0874V38.9047ZM84.6108 42.7778H80.8883V41.6678H82.1132V36.1057H80.8883V34.9897H84.6108V36.1057H83.3442V41.6678H84.6108V42.7778ZM94.2098 37.8304H93.1095V36.1057H92.063V41.6678H93.2939V42.7778H89.607V41.6678H90.832V36.1057H89.7735V37.8304H88.6793V34.9897H94.2098V37.8304ZM102.013 42.7778L101.454 40.9217H98.8847L98.3376 42.7778H97.0472L99.4675 34.9897H100.883L103.303 42.7778H102.013ZM99.2118 39.8297H101.127L100.175 36.6189L99.2118 39.8297ZM111.368 42.7778H106.408V34.9897H107.639V41.6678H111.368V42.7778ZM129.353 38.8807C129.353 39.402 129.297 39.8993 129.186 40.3727C129.079 40.8422 128.905 41.256 128.662 41.6141C128.425 41.9682 128.115 42.2506 127.734 42.4615C127.358 42.6723 126.902 42.7778 126.367 42.7778H123.846V34.9897H126.367C126.894 34.9897 127.346 35.0971 127.723 35.312C128.103 35.5228 128.413 35.8053 128.65 36.1595C128.892 36.5135 129.069 36.9253 129.18 37.3948C129.294 37.8642 129.353 38.3596 129.353 38.8807ZM128.122 38.8807C128.122 37.9815 127.969 37.2953 127.664 36.8219C127.358 36.3444 126.926 36.1057 126.367 36.1057H125.077V41.6678H126.367C126.926 41.6678 127.358 41.425 127.664 40.9397C127.969 40.4543 128.122 39.7679 128.122 38.8807ZM137.524 42.7778H132.564V34.9897H137.524V36.1057H133.796V38.2541H136.704V39.3701H133.796V41.6678H137.524V42.7778ZM146.885 34.9897L144.464 42.7778H143.061L140.641 34.9897H141.931L143.769 41.1546L145.594 34.9897H146.885ZM154.961 42.7778H150.002V34.9897H154.961V36.1057H151.233V38.2541H154.142V39.3701H151.233V41.6678H154.961V42.7778ZM163.68 42.7778H158.721V34.9897H159.952V41.6678H163.68V42.7778ZM166.952 38.8807C166.952 38.3596 167.007 37.8563 167.118 37.3709C167.23 36.8855 167.402 36.4578 167.636 36.0878C167.869 35.7177 168.175 35.4214 168.551 35.1985C168.933 34.9718 169.391 34.8584 169.925 34.8584C170.461 34.8584 170.917 34.9718 171.293 35.1985C171.674 35.4214 171.983 35.7177 172.221 36.0878C172.458 36.4578 172.631 36.8855 172.738 37.3709C172.846 37.8563 172.898 38.3596 172.898 38.8807C172.898 39.402 172.846 39.9052 172.738 40.3907C172.631 40.8721 172.461 41.3017 172.227 41.6797C171.993 42.0537 171.685 42.354 171.305 42.5809C170.929 42.8037 170.468 42.915 169.925 42.915C169.382 42.915 168.92 42.8037 168.539 42.5809C168.163 42.354 167.856 42.0537 167.619 41.6797C167.383 41.3017 167.215 40.8721 167.112 40.3907C167.006 39.9052 166.952 39.402 166.952 38.8807ZM168.182 38.8807C168.182 39.2309 168.209 39.5809 168.26 39.9311C168.315 40.2813 168.406 40.5955 168.533 40.8741C168.665 41.1486 168.841 41.3714 169.063 41.5425C169.289 41.7135 169.577 41.799 169.925 41.799C170.275 41.799 170.56 41.7135 170.781 41.5425C171.008 41.3714 171.184 41.1486 171.311 40.8741C171.441 40.5955 171.533 40.2813 171.584 39.9311C171.64 39.5809 171.668 39.2309 171.668 38.8807C171.668 38.5307 171.64 38.1825 171.584 37.8363C171.533 37.4902 171.441 37.1779 171.311 36.8994C171.184 36.621 171.005 36.3961 170.775 36.2251C170.55 36.054 170.266 35.9684 169.925 35.9684C169.359 35.9684 168.927 36.2251 168.629 36.7383C168.331 37.2515 168.182 37.9657 168.182 38.8807ZM181.41 37.3171C181.41 38.0969 181.174 38.6778 180.702 39.0598C180.23 39.4378 179.572 39.6268 178.727 39.6268H177.39V42.7778H176.158V34.9897H178.716C179.568 34.9897 180.23 35.1867 180.702 35.5805C181.174 35.9704 181.41 36.5493 181.41 37.3171ZM180.179 37.2993C180.179 36.9015 180.047 36.603 179.786 36.4041C179.528 36.2052 179.175 36.1057 178.727 36.1057H177.39V38.5108H178.727C179.175 38.5108 179.528 38.4113 179.786 38.2123C180.047 38.0134 180.179 37.7091 180.179 37.2993ZM189.836 42.7778H188.606V37.5082L187.827 40.3071H186.876L186.108 37.5082V42.7778H184.877V34.9897H186.34L187.351 38.5108L188.361 34.9897H189.836V42.7778ZM198.555 42.7778H193.596V34.9897H198.555V36.1057H194.827V38.2541H197.734V39.3701H194.827V41.6678H198.555V42.7778ZM207.274 42.7778H205.846L203.546 37.1322V42.7778H202.315V34.9897H203.861L206.044 40.3549V34.9897H207.274V42.7778ZM216.273 37.8304H215.172V36.1057H214.126V41.6678H215.357V42.7778H211.669V41.6678H212.894V36.1057H211.836V37.8304H210.742V34.9897H216.273V37.8304Z" fill="white"/>
<path d="M54.4277 22.0001V0.58679H61.355C62.836 0.58679 64.122 0.870345 65.2133 1.43746C66.324 2.00457 67.1813 2.80635 67.7854 3.84279C68.409 4.85968 68.7207 6.06235 68.7207 7.45079V15.1068C68.7207 16.4757 68.409 17.6783 67.7854 18.7148C67.1813 19.7512 66.324 20.5628 65.2133 21.1495C64.122 21.7166 62.836 22.0001 61.355 22.0001H54.4277ZM58.8121 17.8935H61.355C62.2514 17.8935 62.9724 17.6392 63.518 17.1308C64.0636 16.6223 64.3364 15.9477 64.3364 15.1068V7.45079C64.3364 6.62946 64.0636 5.96457 63.518 5.45612C62.9724 4.94768 62.2514 4.69346 61.355 4.69346H58.8121V17.8935ZM72.8306 22.0001V0.58679H79.7579C81.2388 0.58679 82.5249 0.870345 83.6161 1.43746C84.7268 2.00457 85.5842 2.80635 86.1883 3.84279C86.8118 4.85968 87.1236 6.06235 87.1236 7.45079V15.1068C87.1236 16.4757 86.8118 17.6783 86.1883 18.7148C85.5842 19.7512 84.7268 20.5628 83.6161 21.1495C82.5249 21.7166 81.2388 22.0001 79.7579 22.0001H72.8306ZM77.2149 17.8935H79.7579C80.6542 17.8935 81.3752 17.6392 81.9208 17.1308C82.4664 16.6223 82.7392 15.9477 82.7392 15.1068V7.45079C82.7392 6.62946 82.4664 5.96457 81.9208 5.45612C81.3752 4.94768 80.6542 4.69346 79.7579 4.69346H77.2149V17.8935ZM93.4842 14.3735V10.2668H102.837V14.3735H93.4842ZM110.133 22.0001V18.1868H114.372V4.40012H110.133V0.58679H122.994V4.40012H118.756V18.1868H122.994V22.0001H110.133ZM127.952 22.0001V0.58679H133.067L138.592 17.1601C138.533 16.4366 138.465 15.6055 138.387 14.6668C138.309 13.7086 138.241 12.7601 138.182 11.8215C138.143 10.8632 138.124 10.0517 138.124 9.38679V0.58679H141.982V22.0001H136.867L131.401 5.42679C131.46 6.05257 131.518 6.79568 131.577 7.65612C131.635 8.51657 131.684 9.38679 131.723 10.2668C131.781 11.1468 131.81 11.929 131.81 12.6135V22.0001H127.952ZM146.647 22.0001V0.58679H160.384V4.69346H150.973V9.44546H159.624V13.5521H151.031V22.0001H146.647ZM171.773 22.2935C170.35 22.2935 169.113 22.0295 168.061 21.5015C167.008 20.9539 166.19 20.201 165.605 19.2428C165.04 18.265 164.758 17.1308 164.758 15.8401V6.74679C164.758 5.45612 165.04 4.33168 165.605 3.37346C166.19 2.39568 167.008 1.64279 168.061 1.11479C169.113 0.567235 170.35 0.293457 171.773 0.293457C173.215 0.293457 174.452 0.567235 175.485 1.11479C176.537 1.64279 177.346 2.39568 177.911 3.37346C178.495 4.33168 178.788 5.45612 178.788 6.74679V15.8401C178.788 17.1308 178.495 18.265 177.911 19.2428C177.346 20.201 176.537 20.9539 175.485 21.5015C174.452 22.0295 173.215 22.2935 171.773 22.2935ZM171.773 18.4801C172.649 18.4801 173.302 18.2552 173.731 17.8055C174.179 17.3361 174.403 16.681 174.403 15.8401V6.74679C174.403 5.88635 174.189 5.23123 173.76 4.78146C173.332 4.33168 172.669 4.10679 171.773 4.10679C170.876 4.10679 170.214 4.33168 169.785 4.78146C169.356 5.23123 169.142 5.88635 169.142 6.74679V15.8401C169.142 16.681 169.356 17.3361 169.785 17.8055C170.233 18.2552 170.896 18.4801 171.773 18.4801ZM183.306 22.0001V0.58679H190.175C191.695 0.58679 193.01 0.85079 194.121 1.37879C195.231 1.90679 196.089 2.65968 196.693 3.63746C197.316 4.61523 197.628 5.76901 197.628 7.09879C197.628 8.48724 197.287 9.72901 196.605 10.8241C195.943 11.9192 195.037 12.7112 193.887 13.2001L197.92 22.0001H193.156L189.707 13.9041H187.661V22.0001H183.306ZM187.661 10.0908H190.175C191.149 10.0908 191.899 9.84635 192.425 9.35746C192.971 8.86857 193.244 8.18412 193.244 7.30412C193.244 6.38501 192.971 5.67123 192.425 5.16279C191.899 4.65435 191.149 4.40012 190.175 4.40012H187.661V10.0908ZM201.037 22.0001V0.58679H205.977L207.935 7.33346C208.149 8.03746 208.305 8.65346 208.403 9.18146C208.52 9.70946 208.588 10.081 208.607 10.2961C208.627 10.081 208.685 9.70946 208.783 9.18146C208.9 8.65346 209.055 8.03746 209.25 7.33346L211.179 0.58679H216.119V22.0001H212.115V16.1335C212.115 15.0579 212.134 13.9335 212.173 12.7601C212.232 11.5672 212.3 10.3841 212.378 9.21079C212.456 8.03746 212.543 6.94235 212.641 5.92546C212.738 4.88901 212.826 3.98946 212.904 3.22679L210.449 12.9068H206.737L204.164 3.22679C204.262 3.95035 204.359 4.82057 204.457 5.83746C204.554 6.83479 204.642 7.92012 204.72 9.09346C204.817 10.2472 204.895 11.4303 204.954 12.6428C205.012 13.8552 205.041 15.0188 205.041 16.1335V22.0001H201.037Z" fill="#009A42"/>
<path d="M11.3525 42.7777V37.263H22.7669V6.35793H11.3525V0.843262H37.4776V6.35793H29.0633V37.263H37.4776V42.7777H11.3525Z" fill="white"/>
<path d="M0.097168 42.7777V0.843262H11.7742C14.5217 0.843262 16.9067 1.37942 18.9292 2.45171C20.9517 3.48571 22.5162 4.96011 23.6229 6.87493C24.7677 8.78975 25.3401 11.0492 25.3401 13.6534V29.9102C25.3401 32.476 24.7677 34.7355 23.6229 36.6886C22.5162 38.6417 20.9517 40.1545 18.9292 41.2267C16.9067 42.2607 14.5217 42.7777 11.7742 42.7777H0.097168ZM6.27911 37.1482H11.7742C14.0638 37.1482 15.8573 36.5163 17.1548 35.2525C18.4904 33.9505 19.1582 32.1697 19.1582 29.9102V13.6534C19.1582 11.4322 18.4904 9.68971 17.1548 8.42593C15.8573 7.12385 14.0638 6.47282 11.7742 6.47282H6.27911V37.1482Z" fill="#009A42"/>
</g>
<defs>
<clipPath id="clip0_181_354">
<rect width="217" height="43" fill="white"/>
</clipPath>
</defs>
</svg>
