<svg width="218" height="43" viewBox="0 0 218 43" fill="none" xmlns="http://www.w3.org/2000/svg">
<g style="mix-blend-mode:luminosity" clip-path="url(#clip0_651_3143)">
<path d="M59.6169 38.8807C59.6169 39.402 59.5614 39.8993 59.4504 40.3727C59.3433 40.8422 59.1689 41.256 58.9271 41.6141C58.6892 41.9682 58.38 42.2506 57.9994 42.4615C57.6228 42.6723 57.1669 42.7778 56.6317 42.7778H54.1104V34.9897H56.6317C57.1589 34.9897 57.6109 35.0971 57.9876 35.312C58.3682 35.5228 58.6774 35.8053 58.9152 36.1595C59.157 36.5135 59.3335 36.9253 59.4444 37.3948C59.5594 37.8642 59.6169 38.3596 59.6169 38.8807ZM58.386 38.8807C58.386 37.9815 58.2334 37.2953 57.928 36.8219C57.6228 36.3444 57.1907 36.1057 56.6317 36.1057H55.3413V41.6678H56.6317C57.1907 41.6678 57.6228 41.425 57.928 40.9397C58.2334 40.4543 58.386 39.7679 58.386 38.8807ZM67.1879 42.7778H63.4654V41.6678H64.6904V36.1057H63.4654V34.9897H67.1879V36.1057H65.9213V41.6678H67.1879V42.7778ZM77.102 38.9047C77.102 39.4338 77.0485 39.9391 76.9414 40.4205C76.8384 40.9019 76.6659 41.3276 76.4241 41.6976C76.1862 42.0676 75.877 42.3641 75.4964 42.5869C75.1198 42.8057 74.66 42.915 74.1168 42.915C73.5736 42.915 73.1137 42.8037 72.7372 42.5809C72.3605 42.354 72.0513 42.0557 71.8095 41.6856C71.5717 41.3156 71.3992 40.888 71.2922 40.4025C71.189 39.9172 71.1375 39.4139 71.1375 38.8927C71.1375 38.3716 71.189 37.8682 71.2922 37.3828C71.3992 36.8974 71.5717 36.4677 71.8095 36.0937C72.0513 35.7198 72.3605 35.4214 72.7372 35.1985C73.1137 34.9718 73.5736 34.8584 74.1168 34.8584C74.2715 34.8584 74.43 34.8803 74.5925 34.924C74.7551 34.9678 74.9096 35.0355 75.0564 35.1269C75.203 35.2144 75.3319 35.3239 75.4429 35.4552C75.5579 35.5865 75.6391 35.7377 75.6868 35.9088V34.9897H76.7987V37.7529H75.6868C75.6868 37.5101 75.649 37.2813 75.5737 37.0665C75.4983 36.8477 75.3914 36.6568 75.2526 36.4936C75.1139 36.3304 74.9474 36.2032 74.7531 36.1117C74.5589 36.0162 74.3467 35.9684 74.1168 35.9684C73.7679 35.9684 73.4825 36.0559 73.2605 36.2311C73.0385 36.4061 72.8601 36.6328 72.7252 36.9114C72.5904 37.1899 72.4953 37.5022 72.4398 37.8483C72.3883 38.1945 72.3626 38.5425 72.3626 38.8927C72.3626 39.2428 72.3883 39.591 72.4398 39.9371C72.4953 40.2832 72.5885 40.5955 72.7193 40.8741C72.8502 41.1486 73.0285 41.3714 73.2545 41.5425C73.4804 41.7135 73.7679 41.799 74.1168 41.799C74.6203 41.799 75.0267 41.6379 75.3359 41.3156C75.6451 40.9933 75.8571 40.4941 75.9721 39.8177H74.3369V38.7077H77.102V38.9047ZM84.6255 42.7778H80.9029V41.6678H82.1279V36.1057H80.9029V34.9897H84.6255V36.1057H83.3589V41.6678H84.6255V42.7778ZM94.2244 37.8304H93.1242V36.1057H92.0777V41.6678H93.3086V42.7778H89.6217V41.6678H90.8466V36.1057H89.7882V37.8304H88.6939V34.9897H94.2244V37.8304ZM102.027 42.7778L101.468 40.9217H98.8994L98.3523 42.7778H97.0618L99.4821 34.9897H100.897L103.318 42.7778H102.027ZM99.2265 39.8297H101.141L100.19 36.6189L99.2265 39.8297ZM111.382 42.7778H106.423V34.9897H107.654V41.6678H111.382V42.7778ZM129.367 38.8807C129.367 39.402 129.311 39.8993 129.201 40.3727C129.093 40.8422 128.919 41.256 128.677 41.6141C128.439 41.9682 128.13 42.2506 127.749 42.4615C127.373 42.6723 126.917 42.7778 126.381 42.7778H123.86V34.9897H126.381C126.909 34.9897 127.36 35.0971 127.738 35.312C128.118 35.5228 128.427 35.8053 128.665 36.1595C128.907 36.5135 129.084 36.9253 129.195 37.3948C129.309 37.8642 129.367 38.3596 129.367 38.8807ZM128.136 38.8807C128.136 37.9815 127.984 37.2953 127.678 36.8219C127.373 36.3444 126.94 36.1057 126.381 36.1057H125.092V41.6678H126.381C126.94 41.6678 127.373 41.425 127.678 40.9397C127.984 40.4543 128.136 39.7679 128.136 38.8807ZM137.538 42.7778H132.579V34.9897H137.538V36.1057H133.81V38.2541H136.719V39.3701H133.81V41.6678H137.538V42.7778ZM146.9 34.9897L144.479 42.7778H143.076L140.656 34.9897H141.946L143.784 41.1546L145.609 34.9897H146.9ZM154.976 42.7778H150.017V34.9897H154.976V36.1057H151.248V38.2541H154.156V39.3701H151.248V41.6678H154.976V42.7778ZM163.695 42.7778H158.735V34.9897H159.967V41.6678H163.695V42.7778ZM166.967 38.8807C166.967 38.3596 167.022 37.8563 167.133 37.3709C167.245 36.8855 167.416 36.4578 167.65 36.0878C167.884 35.7177 168.19 35.4214 168.566 35.1985C168.947 34.9718 169.405 34.8584 169.94 34.8584C170.476 34.8584 170.931 34.9718 171.308 35.1985C171.689 35.4214 171.998 35.7177 172.236 36.0878C172.473 36.4578 172.646 36.8855 172.753 37.3709C172.86 37.8563 172.913 38.3596 172.913 38.8807C172.913 39.402 172.86 39.9052 172.753 40.3907C172.646 40.8721 172.475 41.3017 172.242 41.6797C172.008 42.0537 171.7 42.354 171.32 42.5809C170.943 42.8037 170.483 42.915 169.94 42.915C169.397 42.915 168.935 42.8037 168.554 42.5809C168.178 42.354 167.871 42.0537 167.633 41.6797C167.398 41.3017 167.23 40.8721 167.127 40.3907C167.021 39.9052 166.967 39.402 166.967 38.8807ZM168.197 38.8807C168.197 39.2309 168.224 39.5809 168.275 39.9311C168.33 40.2813 168.421 40.5955 168.548 40.8741C168.679 41.1486 168.856 41.3714 169.078 41.5425C169.304 41.7135 169.592 41.799 169.94 41.799C170.289 41.799 170.574 41.7135 170.796 41.5425C171.023 41.3714 171.199 41.1486 171.326 40.8741C171.456 40.5955 171.547 40.2813 171.599 39.9311C171.655 39.5809 171.683 39.2309 171.683 38.8807C171.683 38.5307 171.655 38.1825 171.599 37.8363C171.547 37.4902 171.456 37.1779 171.326 36.8994C171.199 36.621 171.02 36.3961 170.79 36.2251C170.565 36.054 170.281 35.9684 169.94 35.9684C169.374 35.9684 168.941 36.2251 168.644 36.7383C168.346 37.2515 168.197 37.9657 168.197 38.8807ZM181.424 37.3171C181.424 38.0969 181.188 38.6778 180.717 39.0598C180.244 39.4378 179.587 39.6268 178.741 39.6268H177.404V42.7778H176.173V34.9897H178.73C179.583 34.9897 180.244 35.1867 180.717 35.5805C181.188 35.9704 181.424 36.5493 181.424 37.3171ZM180.193 37.2993C180.193 36.9015 180.062 36.603 179.801 36.4041C179.543 36.2052 179.19 36.1057 178.741 36.1057H177.404V38.5108H178.741C179.19 38.5108 179.543 38.4113 179.801 38.2123C180.062 38.0134 180.193 37.7091 180.193 37.2993ZM189.851 42.7778H188.621V37.5082L187.841 40.3071H186.89L186.123 37.5082V42.7778H184.892V34.9897H186.354L187.365 38.5108L188.376 34.9897H189.851V42.7778ZM198.57 42.7778H193.611V34.9897H198.57V36.1057H194.842V38.2541H197.749V39.3701H194.842V41.6678H198.57V42.7778ZM207.288 42.7778H205.861L203.561 37.1322V42.7778H202.329V34.9897H203.876L206.058 40.3549V34.9897H207.288V42.7778ZM216.287 37.8304H215.186V36.1057H214.14V41.6678H215.372V42.7778H211.684V41.6678H212.909V36.1057H211.851V37.8304H210.757V34.9897H216.287V37.8304Z" fill="#2F2F2F"/>
<path d="M54.4424 22.0001V0.58679H61.3697C62.8506 0.58679 64.1367 0.870345 65.2279 1.43746C66.3386 2.00457 67.196 2.80635 67.8001 3.84279C68.4236 4.85968 68.7354 6.06235 68.7354 7.45079V15.1068C68.7354 16.4757 68.4236 17.6783 67.8001 18.7148C67.196 19.7512 66.3386 20.5628 65.2279 21.1495C64.1367 21.7166 62.8506 22.0001 61.3697 22.0001H54.4424ZM58.8267 17.8935H61.3697C62.266 17.8935 62.987 17.6392 63.5326 17.1308C64.0782 16.6223 64.351 15.9477 64.351 15.1068V7.45079C64.351 6.62946 64.0782 5.96457 63.5326 5.45612C62.987 4.94768 62.266 4.69346 61.3697 4.69346H58.8267V17.8935ZM72.8452 22.0001V0.58679H79.7725C81.2535 0.58679 82.5395 0.870345 83.6308 1.43746C84.7415 2.00457 85.5988 2.80635 86.2029 3.84279C86.8265 4.85968 87.1382 6.06235 87.1382 7.45079V15.1068C87.1382 16.4757 86.8265 17.6783 86.2029 18.7148C85.5988 19.7512 84.7415 20.5628 83.6308 21.1495C82.5395 21.7166 81.2535 22.0001 79.7725 22.0001H72.8452ZM77.2296 17.8935H79.7725C80.6689 17.8935 81.3899 17.6392 81.9355 17.1308C82.4811 16.6223 82.7539 15.9477 82.7539 15.1068V7.45079C82.7539 6.62946 82.4811 5.96457 81.9355 5.45612C81.3899 4.94768 80.6689 4.69346 79.7725 4.69346H77.2296V17.8935ZM93.4988 14.3735V10.2668H102.852V14.3735H93.4988ZM110.148 22.0001V18.1868H114.386V4.40012H110.148V0.58679H123.009V4.40012H118.771V18.1868H123.009V22.0001H110.148ZM127.967 22.0001V0.58679H133.082L138.606 17.1601C138.548 16.4366 138.48 15.6055 138.402 14.6668C138.324 13.7086 138.255 12.7601 138.197 11.8215C138.158 10.8632 138.139 10.0517 138.139 9.38679V0.58679H141.997V22.0001H136.882L131.416 5.42679C131.474 6.05257 131.533 6.79568 131.591 7.65612C131.65 8.51657 131.698 9.38679 131.737 10.2668C131.796 11.1468 131.825 11.929 131.825 12.6135V22.0001H127.967ZM146.661 22.0001V0.58679H160.399V4.69346H150.987V9.44546H159.639V13.5521H151.046V22.0001H146.661ZM171.787 22.2935C170.365 22.2935 169.127 22.0295 168.075 21.5015C167.023 20.9539 166.205 20.201 165.62 19.2428C165.055 18.265 164.772 17.1308 164.772 15.8401V6.74679C164.772 5.45612 165.055 4.33168 165.62 3.37346C166.205 2.39568 167.023 1.64279 168.075 1.11479C169.127 0.567235 170.365 0.293457 171.787 0.293457C173.229 0.293457 174.467 0.567235 175.499 1.11479C176.552 1.64279 177.36 2.39568 177.925 3.37346C178.51 4.33168 178.802 5.45612 178.802 6.74679V15.8401C178.802 17.1308 178.51 18.265 177.925 19.2428C177.36 20.201 176.552 20.9539 175.499 21.5015C174.467 22.0295 173.229 22.2935 171.787 22.2935ZM171.787 18.4801C172.664 18.4801 173.317 18.2552 173.746 17.8055C174.194 17.3361 174.418 16.681 174.418 15.8401V6.74679C174.418 5.88635 174.204 5.23123 173.775 4.78146C173.346 4.33168 172.684 4.10679 171.787 4.10679C170.891 4.10679 170.228 4.33168 169.8 4.78146C169.371 5.23123 169.157 5.88635 169.157 6.74679V15.8401C169.157 16.681 169.371 17.3361 169.8 17.8055C170.248 18.2552 170.91 18.4801 171.787 18.4801ZM183.321 22.0001V0.58679H190.189C191.709 0.58679 193.025 0.85079 194.135 1.37879C195.246 1.90679 196.103 2.65968 196.707 3.63746C197.331 4.61523 197.643 5.76901 197.643 7.09879C197.643 8.48724 197.302 9.72901 196.62 10.8241C195.957 11.9192 195.051 12.7112 193.901 13.2001L197.935 22.0001H193.171L189.722 13.9041H187.676V22.0001H183.321ZM187.676 10.0908H190.189C191.164 10.0908 191.914 9.84635 192.44 9.35746C192.986 8.86857 193.258 8.18412 193.258 7.30412C193.258 6.38501 192.986 5.67123 192.44 5.16279C191.914 4.65435 191.164 4.40012 190.189 4.40012H187.676V10.0908ZM201.052 22.0001V0.58679H205.991L207.95 7.33346C208.164 8.03746 208.32 8.65346 208.417 9.18146C208.534 9.70946 208.602 10.081 208.622 10.2961C208.641 10.081 208.7 9.70946 208.797 9.18146C208.914 8.65346 209.07 8.03746 209.265 7.33346L211.194 0.58679H216.134V22.0001H212.129V16.1335C212.129 15.0579 212.149 13.9335 212.188 12.7601C212.246 11.5672 212.315 10.3841 212.393 9.21079C212.47 8.03746 212.558 6.94235 212.656 5.92546C212.753 4.88901 212.841 3.98946 212.919 3.22679L210.463 12.9068H206.751L204.179 3.22679C204.277 3.95035 204.374 4.82057 204.471 5.83746C204.569 6.83479 204.657 7.92012 204.735 9.09346C204.832 10.2472 204.91 11.4303 204.968 12.6428C205.027 13.8552 205.056 15.0188 205.056 16.1335V22.0001H201.052Z" fill="#2F2F2F"/>
<path d="M11.3667 42.7777V37.263H22.781V6.35793H11.3667V0.843262H37.4918V6.35793H29.0774V37.263H37.4918V42.7777H11.3667Z" fill="#2F2F2F"/>
<path d="M0.111328 42.7777V0.843262H11.7883C14.5359 0.843262 16.9208 1.37942 18.9434 2.45171C20.9659 3.48571 22.5304 4.96011 23.6371 6.87493C24.7819 8.78975 25.3543 11.0492 25.3543 13.6534V29.9102C25.3543 32.476 24.7819 34.7355 23.6371 36.6886C22.5304 38.6417 20.9659 40.1544 18.9434 41.2267C16.9208 42.2607 14.5359 42.7777 11.7883 42.7777H0.111328ZM6.29327 37.1482H11.7883C14.0779 37.1482 15.8715 36.5163 17.1689 35.2525C18.5046 33.9505 19.1723 32.1697 19.1723 29.9102V13.6534C19.1723 11.4322 18.5046 9.68971 17.1689 8.42593C15.8715 7.12385 14.0779 6.47282 11.7883 6.47282H6.29327V37.1482Z" fill="#2F2F2F"/>
</g>
<defs>
<clipPath id="clip0_651_3143">
<rect width="217" height="43" fill="white" transform="translate(0.0141602)"/>
</clipPath>
</defs>
</svg>
