<svg width="217" height="43" viewBox="0 0 217 43" fill="none" xmlns="http://www.w3.org/2000/svg">
<g clip-path="url(#clip0_182_397)">
<path d="M59.6025 38.8807C59.6025 39.402 59.547 39.8993 59.436 40.3727C59.3289 40.8422 59.1545 41.256 58.9127 41.6141C58.6748 41.9682 58.3656 42.2506 57.985 42.4615C57.6084 42.6723 57.1525 42.7778 56.6173 42.7778H54.0959V34.9897H56.6173C57.1445 34.9897 57.5965 35.0971 57.9732 35.312C58.3538 35.5228 58.663 35.8053 58.9008 36.1595C59.1426 36.5135 59.3191 36.9253 59.43 37.3948C59.545 37.8642 59.6025 38.3596 59.6025 38.8807ZM58.3715 38.8807C58.3715 37.9815 58.2189 37.2953 57.9136 36.8219C57.6084 36.3444 57.1763 36.1057 56.6173 36.1057H55.3269V41.6678H56.6173C57.1763 41.6678 57.6084 41.425 57.9136 40.9397C58.2189 40.4543 58.3715 39.7679 58.3715 38.8807ZM67.1735 42.7778H63.4509V41.6678H64.676V36.1057H63.4509V34.9897H67.1735V36.1057H65.9069V41.6678H67.1735V42.7778ZM77.0876 38.9047C77.0876 39.4338 77.0341 39.9391 76.927 40.4205C76.824 40.9019 76.6515 41.3276 76.4096 41.6976C76.1718 42.0676 75.8626 42.3641 75.482 42.5869C75.1054 42.8057 74.6456 42.915 74.1024 42.915C73.5592 42.915 73.0993 42.8037 72.7228 42.5809C72.3461 42.354 72.0369 42.0557 71.7951 41.6856C71.5573 41.3156 71.3848 40.888 71.2778 40.4025C71.1746 39.9172 71.1231 39.4139 71.1231 38.8927C71.1231 38.3716 71.1746 37.8682 71.2778 37.3828C71.3848 36.8974 71.5573 36.4677 71.7951 36.0937C72.0369 35.7198 72.3461 35.4214 72.7228 35.1985C73.0993 34.9718 73.5592 34.8584 74.1024 34.8584C74.2571 34.8584 74.4156 34.8803 74.5781 34.924C74.7407 34.9678 74.8952 35.0355 75.042 35.1269C75.1886 35.2144 75.3175 35.3239 75.4285 35.4552C75.5435 35.5865 75.6247 35.7377 75.6723 35.9088V34.9897H76.7843V37.7529H75.6723C75.6723 37.5101 75.6346 37.2813 75.5593 37.0665C75.4839 36.8477 75.377 36.6568 75.2382 36.4936C75.0995 36.3304 74.933 36.2032 74.7387 36.1117C74.5445 36.0162 74.3323 35.9684 74.1024 35.9684C73.7535 35.9684 73.4681 36.0559 73.2461 36.2311C73.0241 36.4061 72.8457 36.6328 72.7108 36.9114C72.576 37.1899 72.4809 37.5022 72.4254 37.8483C72.3738 38.1945 72.3482 38.5425 72.3482 38.8927C72.3482 39.2428 72.3738 39.591 72.4254 39.9371C72.4809 40.2832 72.5741 40.5955 72.7049 40.8741C72.8358 41.1486 73.0141 41.3714 73.2401 41.5425C73.466 41.7135 73.7535 41.799 74.1024 41.799C74.6059 41.799 75.0123 41.6379 75.3215 41.3156C75.6307 40.9933 75.8427 40.4941 75.9577 39.8177H74.3225V38.7077H77.0876V38.9047ZM84.6111 42.7778H80.8885V41.6678H82.1135V36.1057H80.8885V34.9897H84.6111V36.1057H83.3445V41.6678H84.6111V42.7778ZM94.21 37.8304H93.1098V36.1057H92.0633V41.6678H93.2942V42.7778H89.6073V41.6678H90.8322V36.1057H89.7738V37.8304H88.6795V34.9897H94.21V37.8304ZM102.013 42.7778L101.454 40.9217H98.885L98.3379 42.7778H97.0474L99.4677 34.9897H100.883L103.303 42.7778H102.013ZM99.2121 39.8297H101.127L100.175 36.6189L99.2121 39.8297ZM111.368 42.7778H106.409V34.9897H107.639V41.6678H111.368V42.7778ZM129.353 38.8807C129.353 39.402 129.297 39.8993 129.186 40.3727C129.079 40.8422 128.905 41.256 128.663 41.6141C128.425 41.9682 128.116 42.2506 127.735 42.4615C127.358 42.6723 126.903 42.7778 126.367 42.7778H123.846V34.9897H126.367C126.894 34.9897 127.346 35.0971 127.724 35.312C128.104 35.5228 128.413 35.8053 128.65 36.1595C128.893 36.5135 129.069 36.9253 129.18 37.3948C129.295 37.8642 129.353 38.3596 129.353 38.8807ZM128.122 38.8807C128.122 37.9815 127.97 37.2953 127.664 36.8219C127.358 36.3444 126.926 36.1057 126.367 36.1057H125.077V41.6678H126.367C126.926 41.6678 127.358 41.425 127.664 40.9397C127.97 40.4543 128.122 39.7679 128.122 38.8807ZM137.524 42.7778H132.565V34.9897H137.524V36.1057H133.796V38.2541H136.704V39.3701H133.796V41.6678H137.524V42.7778ZM146.886 34.9897L144.465 42.7778H143.062L140.642 34.9897H141.931L143.769 41.1546L145.595 34.9897H146.886ZM154.961 42.7778H150.002V34.9897H154.961V36.1057H151.233V38.2541H154.142V39.3701H151.233V41.6678H154.961V42.7778ZM163.68 42.7778H158.721V34.9897H159.952V41.6678H163.68V42.7778ZM166.953 38.8807C166.953 38.3596 167.007 37.8563 167.118 37.3709C167.23 36.8855 167.402 36.4578 167.636 36.0878C167.87 35.7177 168.175 35.4214 168.552 35.1985C168.933 34.9718 169.391 34.8584 169.925 34.8584C170.461 34.8584 170.917 34.9718 171.293 35.1985C171.674 35.4214 171.984 35.7177 172.221 36.0878C172.459 36.4578 172.632 36.8855 172.739 37.3709C172.846 37.8563 172.898 38.3596 172.898 38.8807C172.898 39.402 172.846 39.9052 172.739 40.3907C172.632 40.8721 172.461 41.3017 172.227 41.6797C171.993 42.0537 171.685 42.354 171.305 42.5809C170.929 42.8037 170.469 42.915 169.925 42.915C169.382 42.915 168.921 42.8037 168.539 42.5809C168.163 42.354 167.856 42.0537 167.619 41.6797C167.384 41.3017 167.216 40.8721 167.112 40.3907C167.006 39.9052 166.953 39.402 166.953 38.8807ZM168.183 38.8807C168.183 39.2309 168.209 39.5809 168.261 39.9311C168.315 40.2813 168.407 40.5955 168.533 40.8741C168.665 41.1486 168.842 41.3714 169.063 41.5425C169.29 41.7135 169.577 41.799 169.925 41.799C170.275 41.799 170.56 41.7135 170.782 41.5425C171.008 41.3714 171.185 41.1486 171.311 40.8741C171.442 40.5955 171.533 40.2813 171.584 39.9311C171.64 39.5809 171.668 39.2309 171.668 38.8807C171.668 38.5307 171.64 38.1825 171.584 37.8363C171.533 37.4902 171.442 37.1779 171.311 36.8994C171.185 36.621 171.006 36.3961 170.776 36.2251C170.55 36.054 170.266 35.9684 169.925 35.9684C169.359 35.9684 168.927 36.2251 168.63 36.7383C168.331 37.2515 168.183 37.9657 168.183 38.8807ZM181.41 37.3171C181.41 38.0969 181.174 38.6778 180.702 39.0598C180.23 39.4378 179.572 39.6268 178.727 39.6268H177.39V42.7778H176.159V34.9897H178.716C179.569 34.9897 180.23 35.1867 180.702 35.5805C181.174 35.9704 181.41 36.5493 181.41 37.3171ZM180.179 37.2993C180.179 36.9015 180.047 36.603 179.787 36.4041C179.528 36.2052 179.175 36.1057 178.727 36.1057H177.39V38.5108H178.727C179.175 38.5108 179.528 38.4113 179.787 38.2123C180.047 38.0134 180.179 37.7091 180.179 37.2993ZM189.837 42.7778H188.606V37.5082L187.827 40.3071H186.876L186.109 37.5082V42.7778H184.877V34.9897H186.34L187.351 38.5108L188.362 34.9897H189.837V42.7778ZM198.555 42.7778H193.596V34.9897H198.555V36.1057H194.827V38.2541H197.734V39.3701H194.827V41.6678H198.555V42.7778ZM207.274 42.7778H205.847L203.546 37.1322V42.7778H202.315V34.9897H203.862L206.044 40.3549V34.9897H207.274V42.7778ZM216.273 37.8304H215.172V36.1057H214.126V41.6678H215.357V42.7778H211.669V41.6678H212.895V36.1057H211.836V37.8304H210.743V34.9897H216.273V37.8304Z" fill="white"/>
<path d="M54.428 22.0001V0.58679H61.3553C62.8362 0.58679 64.1223 0.870345 65.2135 1.43746C66.3242 2.00457 67.1816 2.80635 67.7857 3.84279C68.4092 4.85968 68.721 6.06235 68.721 7.45079V15.1068C68.721 16.4757 68.4092 17.6783 67.7857 18.7148C67.1816 19.7512 66.3242 20.5628 65.2135 21.1495C64.1223 21.7166 62.8362 22.0001 61.3553 22.0001H54.428ZM58.8123 17.8935H61.3553C62.2516 17.8935 62.9726 17.6392 63.5182 17.1308C64.0638 16.6223 64.3366 15.9477 64.3366 15.1068V7.45079C64.3366 6.62946 64.0638 5.96457 63.5182 5.45612C62.9726 4.94768 62.2516 4.69346 61.3553 4.69346H58.8123V17.8935ZM72.8308 22.0001V0.58679H79.7581C81.2391 0.58679 82.5251 0.870345 83.6163 1.43746C84.7271 2.00457 85.5844 2.80635 86.1885 3.84279C86.8121 4.85968 87.1238 6.06235 87.1238 7.45079V15.1068C87.1238 16.4757 86.8121 17.6783 86.1885 18.7148C85.5844 19.7512 84.7271 20.5628 83.6163 21.1495C82.5251 21.7166 81.2391 22.0001 79.7581 22.0001H72.8308ZM77.2152 17.8935H79.7581C80.6545 17.8935 81.3755 17.6392 81.9211 17.1308C82.4667 16.6223 82.7395 15.9477 82.7395 15.1068V7.45079C82.7395 6.62946 82.4667 5.96457 81.9211 5.45612C81.3755 4.94768 80.6545 4.69346 79.7581 4.69346H77.2152V17.8935ZM93.4844 14.3735V10.2668H102.838V14.3735H93.4844ZM110.134 22.0001V18.1868H114.372V4.40012H110.134V0.58679H122.994V4.40012H118.756V18.1868H122.994V22.0001H110.134ZM127.952 22.0001V0.58679H133.068L138.592 17.1601C138.533 16.4366 138.465 15.6055 138.387 14.6668C138.309 13.7086 138.241 12.7601 138.183 11.8215C138.144 10.8632 138.124 10.0517 138.124 9.38679V0.58679H141.982V22.0001H136.867L131.401 5.42679C131.46 6.05257 131.518 6.79568 131.577 7.65612C131.635 8.51657 131.684 9.38679 131.723 10.2668C131.781 11.1468 131.811 11.929 131.811 12.6135V22.0001H127.952ZM146.647 22.0001V0.58679H160.384V4.69346H150.973V9.44546H159.625V13.5521H151.031V22.0001H146.647ZM171.773 22.2935C170.35 22.2935 169.113 22.0295 168.061 21.5015C167.009 20.9539 166.19 20.201 165.606 19.2428C165.04 18.265 164.758 17.1308 164.758 15.8401V6.74679C164.758 5.45612 165.04 4.33168 165.606 3.37346C166.19 2.39568 167.009 1.64279 168.061 1.11479C169.113 0.567235 170.35 0.293457 171.773 0.293457C173.215 0.293457 174.452 0.567235 175.485 1.11479C176.537 1.64279 177.346 2.39568 177.911 3.37346C178.496 4.33168 178.788 5.45612 178.788 6.74679V15.8401C178.788 17.1308 178.496 18.265 177.911 19.2428C177.346 20.201 176.537 20.9539 175.485 21.5015C174.452 22.0295 173.215 22.2935 171.773 22.2935ZM171.773 18.4801C172.65 18.4801 173.303 18.2552 173.731 17.8055C174.179 17.3361 174.403 16.681 174.403 15.8401V6.74679C174.403 5.88635 174.189 5.23123 173.76 4.78146C173.332 4.33168 172.669 4.10679 171.773 4.10679C170.877 4.10679 170.214 4.33168 169.785 4.78146C169.357 5.23123 169.142 5.88635 169.142 6.74679V15.8401C169.142 16.681 169.357 17.3361 169.785 17.8055C170.233 18.2552 170.896 18.4801 171.773 18.4801ZM183.306 22.0001V0.58679H190.175C191.695 0.58679 193.01 0.85079 194.121 1.37879C195.232 1.90679 196.089 2.65968 196.693 3.63746C197.317 4.61523 197.628 5.76901 197.628 7.09879C197.628 8.48724 197.287 9.72901 196.605 10.8241C195.943 11.9192 195.037 12.7112 193.887 13.2001L197.921 22.0001H193.156L189.707 13.9041H187.661V22.0001H183.306ZM187.661 10.0908H190.175C191.149 10.0908 191.9 9.84635 192.426 9.35746C192.971 8.86857 193.244 8.18412 193.244 7.30412C193.244 6.38501 192.971 5.67123 192.426 5.16279C191.9 4.65435 191.149 4.40012 190.175 4.40012H187.661V10.0908ZM201.037 22.0001V0.58679H205.977L207.935 7.33346C208.15 8.03746 208.306 8.65346 208.403 9.18146C208.52 9.70946 208.588 10.081 208.608 10.2961C208.627 10.081 208.686 9.70946 208.783 9.18146C208.9 8.65346 209.056 8.03746 209.251 7.33346L211.18 0.58679H216.119V22.0001H212.115V16.1335C212.115 15.0579 212.135 13.9335 212.173 12.7601C212.232 11.5672 212.3 10.3841 212.378 9.21079C212.456 8.03746 212.544 6.94235 212.641 5.92546C212.739 4.88901 212.826 3.98946 212.904 3.22679L210.449 12.9068H206.737L204.165 3.22679C204.262 3.95035 204.36 4.82057 204.457 5.83746C204.554 6.83479 204.642 7.92012 204.72 9.09346C204.818 10.2472 204.895 11.4303 204.954 12.6428C205.012 13.8552 205.042 15.0188 205.042 16.1335V22.0001H201.037Z" fill="#4B00E3"/>
<path d="M11.3525 42.7777V37.263H22.7669V6.35793H11.3525V0.843262H37.4776V6.35793H29.0633V37.263H37.4776V42.7777H11.3525Z" fill="white"/>
<path d="M0.097168 42.7777V0.843262H11.7742C14.5217 0.843262 16.9067 1.37942 18.9292 2.45171C20.9517 3.48571 22.5162 4.96011 23.6229 6.87493C24.7677 8.78975 25.3401 11.0492 25.3401 13.6534V29.9102C25.3401 32.476 24.7677 34.7355 23.6229 36.6886C22.5162 38.6417 20.9517 40.1545 18.9292 41.2267C16.9067 42.2607 14.5217 42.7777 11.7742 42.7777H0.097168ZM6.27911 37.1482H11.7742C14.0638 37.1482 15.8573 36.5163 17.1548 35.2525C18.4904 33.9505 19.1582 32.1697 19.1582 29.9102V13.6534C19.1582 11.4322 18.4904 9.68971 17.1548 8.42593C15.8573 7.12385 14.0638 6.47282 11.7742 6.47282H6.27911V37.1482Z" fill="#4B00E3"/>
</g>
<defs>
<clipPath id="clip0_182_397">
<rect width="217" height="43" fill="white"/>
</clipPath>
</defs>
</svg>
