<svg width="91" height="91" viewBox="0 0 91 91" fill="none" xmlns="http://www.w3.org/2000/svg">
<mask id="path-1-inside-1_182_502" fill="white">
<path d="M79.625 37.9165C79.625 64.4582 45.5 87.2082 45.5 87.2082C45.5 87.2082 11.375 64.4582 11.375 37.9165C11.375 28.866 14.9703 20.1862 21.37 13.7865C27.7697 7.38681 36.4495 3.7915 45.5 3.7915C54.5505 3.7915 63.2303 7.38681 69.63 13.7865C76.0297 20.1862 79.625 28.866 79.625 37.9165Z"/>
</mask>
<path d="M79.625 37.9165L82.625 37.9165L79.625 37.9165ZM45.5 87.2082L43.8359 89.7043C44.8436 90.3761 46.1564 90.3761 47.1641 89.7043L45.5 87.2082ZM11.375 37.9165H8.375H11.375ZM45.5 3.7915V6.7915V3.7915ZM76.625 37.9165C76.625 49.9815 68.7965 61.573 60.3846 70.4522C56.24 74.8271 52.0852 78.4059 48.9633 80.8919C47.4046 82.1331 46.1095 83.097 45.2098 83.7468C44.7602 84.0715 44.4097 84.3175 44.1751 84.4799C44.0578 84.5612 43.9695 84.6215 43.9123 84.6604C43.8837 84.6798 43.8628 84.6939 43.85 84.7025C43.8436 84.7069 43.8392 84.7098 43.8368 84.7114C43.8357 84.7122 43.835 84.7126 43.8348 84.7127C43.8347 84.7128 43.835 84.7126 43.835 84.7126C43.8354 84.7124 43.8359 84.712 45.5 87.2082C47.1641 89.7043 47.1649 89.7038 47.1658 89.7032C47.1663 89.7029 47.1673 89.7022 47.1683 89.7015C47.1702 89.7002 47.1726 89.6986 47.1756 89.6966C47.1815 89.6927 47.1895 89.6873 47.1995 89.6806C47.2194 89.6672 47.2475 89.6482 47.2835 89.6238C47.3554 89.575 47.4587 89.5043 47.5913 89.4124C47.8566 89.2287 48.2394 88.96 48.7228 88.6108C49.6893 87.9128 51.0602 86.892 52.7008 85.5856C55.9773 82.9766 60.3537 79.209 64.7404 74.5787C73.391 65.4475 82.625 52.3932 82.625 37.9165H76.625ZM45.5 87.2082C47.1641 84.712 47.1646 84.7124 47.165 84.7126C47.165 84.7126 47.1653 84.7128 47.1652 84.7127C47.165 84.7126 47.1643 84.7122 47.1632 84.7114C47.1608 84.7098 47.1564 84.7069 47.15 84.7025C47.1372 84.6939 47.1163 84.6798 47.0877 84.6604C47.0305 84.6215 46.9422 84.5612 46.8249 84.4799C46.5903 84.3175 46.2398 84.0715 45.7902 83.7468C44.8905 83.097 43.5954 82.1331 42.0367 80.8919C38.9148 78.4059 34.76 74.8271 30.6154 70.4522C22.2035 61.573 14.375 49.9815 14.375 37.9165H8.375C8.375 52.3932 17.609 65.4475 26.2596 74.5787C30.6463 79.209 35.0227 82.9766 38.2992 85.5856C39.9398 86.892 41.3107 87.9128 42.2772 88.6108C42.7607 88.96 43.1434 89.2287 43.4087 89.4124C43.5413 89.5043 43.6446 89.575 43.7165 89.6238C43.7525 89.6482 43.7806 89.6672 43.8005 89.6806C43.8105 89.6873 43.8185 89.6927 43.8244 89.6966C43.8274 89.6986 43.8298 89.7002 43.8317 89.7015C43.8327 89.7022 43.8337 89.7029 43.8342 89.7032C43.8351 89.7038 43.8359 89.7043 45.5 87.2082ZM14.375 37.9165C14.375 29.6616 17.6542 21.7449 23.4913 15.9078L19.2487 11.6652C12.2864 18.6275 8.375 28.0703 8.375 37.9165L14.375 37.9165ZM23.4913 15.9078C29.3284 10.0707 37.2451 6.7915 45.5 6.7915V0.791504C35.6538 0.791504 26.2109 4.70288 19.2487 11.6652L23.4913 15.9078ZM45.5 6.7915C53.7549 6.7915 61.6716 10.0707 67.5087 15.9078L71.7513 11.6652C64.789 4.70288 55.3462 0.791504 45.5 0.791504V6.7915ZM67.5087 15.9078C73.3458 21.7449 76.625 29.6616 76.625 37.9165L82.625 37.9165C82.625 28.0703 78.7136 18.6275 71.7513 11.6652L67.5087 15.9078Z" fill="#F55727" mask="url(#path-1-inside-1_182_502)"/>
<path fill-rule="evenodd" clip-rule="evenodd" d="M28.9902 20.3655V57.5165H37.7855H39.2374H61.9998V52.6309H54.6158V25.2511H61.9998V20.3655H39.2374H37.7855H28.9902ZM39.2374 52.5291H34.4152V25.3529H39.2374C41.2467 25.3529 42.8206 25.9296 43.9592 27.0832C45.1313 28.2028 45.7173 29.7465 45.7173 31.7144V46.1167C45.7173 48.1185 45.1313 49.6962 43.9592 50.8497C42.8206 51.9693 41.2467 52.5291 39.2374 52.5291Z" fill="#F55727"/>
</svg>
