<svg width="95" height="95" viewBox="0 0 95 95" fill="none" xmlns="http://www.w3.org/2000/svg">
<g clip-path="url(#clip0_319_5898)">
<g filter="url(#filter0_dd_319_5898)">
<path fill-rule="evenodd" clip-rule="evenodd" d="M62.3846 72.4523C70.7965 63.5731 78.625 51.9816 78.625 39.9166C78.625 31.6618 75.3458 23.745 69.5087 17.9079C63.6716 12.0709 55.7549 8.79163 47.5 8.79163C39.2451 8.79163 31.3284 12.0709 25.4913 17.9079C19.6542 23.745 16.375 31.6618 16.375 39.9166C16.375 51.9816 24.2035 63.5731 32.6154 72.4523C36.76 76.8272 40.9148 80.406 44.0367 82.892C45.435 84.0054 46.6212 84.8958 47.5 85.5363C48.3788 84.8958 49.565 84.0054 50.9633 82.892C54.0852 80.406 58.24 76.8272 62.3846 72.4523ZM47.5 89.2083C47.5 89.2083 81.625 66.4583 81.625 39.9166C81.625 30.8661 78.0297 22.1863 71.63 15.7866C65.2303 9.38693 56.5505 5.79163 47.5 5.79163C38.4495 5.79163 29.7697 9.38693 23.37 15.7866C16.9703 22.1863 13.375 30.8661 13.375 39.9166C13.375 66.4583 47.5 89.2083 47.5 89.2083Z" fill="#F55727"/>
<path fill-rule="evenodd" clip-rule="evenodd" d="M30.9903 22.3654V59.5164H63.9999V54.6308H56.6159V27.251H63.9999V22.3654H30.9903ZM41.2375 54.529H36.4153V27.3528H41.2375C43.2468 27.3528 44.8207 27.9296 45.9592 29.0831C47.1313 30.2027 47.7173 31.7465 47.7173 33.7143V48.1166C47.7173 50.1184 47.1313 51.6961 45.9592 52.8496C44.8207 53.9692 43.2468 54.529 41.2375 54.529Z" fill="#F55727"/>
</g>
</g>
<defs>
<filter id="filter0_dd_319_5898" x="-0.625" y="-2.20837" width="96.25" height="111.417" filterUnits="userSpaceOnUse" color-interpolation-filters="sRGB">
<feFlood flood-opacity="0" result="BackgroundImageFix"/>
<feColorMatrix in="SourceAlpha" type="matrix" values="0 0 0 0 0 0 0 0 0 0 0 0 0 0 0 0 0 0 127 0" result="hardAlpha"/>
<feOffset dy="2"/>
<feGaussianBlur stdDeviation="1.5"/>
<feColorMatrix type="matrix" values="0 0 0 0 0 0 0 0 0 0 0 0 0 0 0 0 0 0 0.3 0"/>
<feBlend mode="normal" in2="BackgroundImageFix" result="effect1_dropShadow_319_5898"/>
<feColorMatrix in="SourceAlpha" type="matrix" values="0 0 0 0 0 0 0 0 0 0 0 0 0 0 0 0 0 0 127 0" result="hardAlpha"/>
<feMorphology radius="4" operator="dilate" in="SourceAlpha" result="effect2_dropShadow_319_5898"/>
<feOffset dy="6"/>
<feGaussianBlur stdDeviation="5"/>
<feColorMatrix type="matrix" values="0 0 0 0 0 0 0 0 0 0 0 0 0 0 0 0 0 0 0.15 0"/>
<feBlend mode="normal" in2="effect1_dropShadow_319_5898" result="effect2_dropShadow_319_5898"/>
<feBlend mode="normal" in="SourceGraphic" in2="effect2_dropShadow_319_5898" result="shape"/>
</filter>
<clipPath id="clip0_319_5898">
<rect width="95" height="95" fill="white"/>
</clipPath>
</defs>
</svg>
