<svg width="321" height="512" viewBox="0 0 321 512" fill="none" xmlns="http://www.w3.org/2000/svg">
<rect x="61.0586" y="321.514" width="258.042" height="188.632" rx="22.5" fill="#07061B" stroke="#4B00E3" stroke-width="3"/>
<path d="M61.0586 344.014C61.0586 331.588 71.1322 321.514 83.5586 321.514H296.601C309.027 321.514 319.101 331.587 319.101 344.014V403.013H61.0586V344.014Z" fill="#07061B" stroke="#4B00E3" stroke-width="3"/>
<mask id="path-3-inside-1_491_1283" fill="white">
<path fill-rule="evenodd" clip-rule="evenodd" d="M149 283C137.954 283 129 291.954 129 303V323H155V310.439C155 307.678 157.239 305.439 160 305.439H219C221.761 305.439 224 307.678 224 310.439V323H250V303C250 291.954 241.046 283 230 283H149Z"/>
</mask>
<path fill-rule="evenodd" clip-rule="evenodd" d="M149 283C137.954 283 129 291.954 129 303V323H155V310.439C155 307.678 157.239 305.439 160 305.439H219C221.761 305.439 224 307.678 224 310.439V323H250V303C250 291.954 241.046 283 230 283H149Z" fill="#07061B"/>
<path d="M129 323H126V326H129V323ZM155 323V326H158V323H155ZM224 323H221V326H224V323ZM250 323V326H253V323H250ZM132 303C132 293.611 139.611 286 149 286V280C136.297 280 126 290.297 126 303H132ZM132 323V303H126V323H132ZM155 320H129V326H155V320ZM158 323V310.439H152V323H158ZM158 310.439C158 309.334 158.895 308.439 160 308.439V302.439C155.582 302.439 152 306.021 152 310.439H158ZM160 308.439H219V302.439H160V308.439ZM219 308.439C220.105 308.439 221 309.334 221 310.439H227C227 306.021 223.418 302.439 219 302.439V308.439ZM221 310.439V323H227V310.439H221ZM250 320H224V326H250V320ZM247 303V323H253V303H247ZM230 286C239.389 286 247 293.611 247 303H253C253 290.297 242.703 280 230 280V286ZM149 286H230V280H149V286Z" fill="#4B00E3" mask="url(#path-3-inside-1_491_1283)"/>
<rect x="165.173" y="383.379" width="49.0575" height="33.9684" rx="12.5" fill="#4B00E3" stroke="#4B00E3" stroke-width="3"/>
<path d="M49.1828 436.868L49.2185 436.869H49.2542H73.378C75.9946 436.869 78.2066 434.73 78.2066 432.041V425.266L79.8648 424.71C79.8648 424.71 79.8649 424.71 79.8649 424.71C103.667 416.727 119.653 394.458 119.703 369.357V369.351C119.703 337.123 93.5791 311 61.3513 311C29.1234 311 3 337.123 3 369.351C3 394.457 18.9896 416.727 42.7908 424.71L44.449 425.266V432.041C44.449 434.696 46.6114 436.807 49.1828 436.868Z" fill="#4B00E3" stroke="#4B00E3" stroke-width="6"/>
<path d="M71.8014 453.27H50.4801C47.2422 453.27 44.4912 455.855 44.4912 459.189C44.4912 462.523 47.2422 465.107 50.4801 465.107H51.9432C53.9153 468.066 57.3121 470 61.1472 470C64.9823 470 68.3791 468.066 70.3512 465.107H71.8143C75.0522 465.107 77.8032 462.523 77.8032 459.189C77.8032 455.838 75.0223 453.27 71.8014 453.27Z" fill="#4B00E3" stroke="#4B00E3" stroke-width="6"/>
<path fill-rule="evenodd" clip-rule="evenodd" d="M162.527 24.3611C111.755 27.3369 74.0001 63.011 74.0001 106.579C73.9626 135.501 87.5243 158.428 108.691 175.587V198.867C108.691 202.062 112.253 203.968 114.911 202.195L138.287 186.601C145.48 188.099 161.664 188.998 169.419 188.998C195.975 188.998 217.796 179.632 232.912 164.516C228.847 164.726 225.067 164.838 222.334 164.838C169.624 164.838 135.569 127.937 135.569 82.419C135.569 59.7722 146.364 39.2583 162.527 24.3611Z" fill="#009A42"/>
<path d="M316.253 82.4191V82.4211C316.289 109.979 303.766 132.01 283.931 148.761C282.454 150.008 281.562 151.844 281.562 153.81V172.838C281.562 175.634 278.446 177.301 276.12 175.749L256.042 162.356C254.586 161.385 252.836 161.066 251.169 161.335C243.404 162.59 229.373 163.338 222.334 163.338C170.434 163.338 137.069 127.091 137.069 82.4191C137.069 37.852 179.877 1.50002 222.334 1.50002C275.912 1.50002 316.253 37.9141 316.253 82.4191Z" fill="#070622" stroke="#009A42" stroke-width="3" stroke-linejoin="round"/>
<ellipse cx="201.426" cy="81.3523" rx="8.96264" ry="9.35232" fill="#009A42"/>
<circle cx="228.313" cy="81.3523" r="9.35232" fill="#009A42"/>
<ellipse cx="255.201" cy="81.3523" rx="8.96264" ry="9.35232" fill="#009A42"/>
</svg>
