<svg width="96" height="97" viewBox="0 0 96 97" fill="none" xmlns="http://www.w3.org/2000/svg">
<path d="M28.2858 65.2445V21.6785H40.6253C43.5287 21.6785 46.049 22.2355 48.1863 23.3495C50.3236 24.4237 51.9768 25.9555 53.1463 27.9448C54.356 29.9341 54.9609 32.2815 54.9609 34.987V51.8763C54.9609 54.5419 54.356 56.8894 53.1463 58.9185C51.9768 60.9476 50.3236 62.5192 48.1863 63.6331C46.049 64.7074 43.5287 65.2445 40.6253 65.2445H28.2858ZM34.8185 59.3959H40.6253C43.0448 59.3959 44.9401 58.7394 46.3112 57.4265C47.7226 56.0738 48.4282 54.2237 48.4282 51.8763V34.987C48.4282 32.6794 47.7226 30.8691 46.3112 29.5562C44.9401 28.2034 43.0448 27.5271 40.6253 27.5271H34.8185V59.3959Z" fill="#4B00E3"/>
<path fill-rule="evenodd" clip-rule="evenodd" d="M43.2773 65.0817L43.2773 65.2445H67.7144V59.5153H58.8227V27.4077H67.7144V21.6785H43.2773L43.2773 21.8472C45.0919 22.0887 46.7282 22.5895 48.1863 23.3495C50.3236 24.4237 51.9768 25.9555 53.1463 27.9448C54.356 29.9341 54.9609 32.2815 54.9609 34.987V51.8763C54.9609 54.5419 54.356 56.8893 53.1463 58.9184C51.9768 60.9475 50.3236 62.5191 48.1863 63.6331C46.7282 64.366 45.0919 64.8488 43.2773 65.0817Z" fill="#4B00E3"/>
<path d="M48.0001 93.2501C48.0001 93.2501 84.0001 75.2501 84.0001 48.2501V16.75L48.0001 3.25L12 16.75V48.2501C12 75.2501 48.0001 93.2501 48.0001 93.2501Z" stroke="#F55727" stroke-width="3" stroke-linecap="round" stroke-linejoin="round"/>
</svg>
