<svg width="96" height="96" viewBox="0 0 96 96" fill="none" xmlns="http://www.w3.org/2000/svg">
<path fill-rule="evenodd" clip-rule="evenodd" d="M20.3004 88.2067L20.6916 85.9259C23.3121 74.0377 34.5428 65.1011 48 65.1011C61.4566 65.1011 72.6871 74.037 75.308 85.9246L75.6997 88.208C75.8225 89.204 75.8857 90.217 75.8857 91.2439H75.685L47.9999 76.6846L20.3149 91.2439H20.1143C20.1143 90.2166 20.1775 89.2031 20.3004 88.2067Z" fill="#4B00E3"/>
<path d="M47.649 58.1622C53.4333 58.1622 58.1223 53.4732 58.1223 47.6889C58.1223 41.9046 53.4333 37.2156 47.649 37.2156C41.8647 37.2156 37.1757 41.9046 37.1757 47.6889C37.1757 53.4732 41.8647 58.1622 47.649 58.1622Z" fill="#4B00E3"/>
<path d="M48 4.53687L62.1367 33.1764L93.75 37.7971L70.875 60.0774L76.2735 91.5534L48 76.6846L19.7265 91.5534L25.125 60.0774L2.25 37.7971L33.8632 33.1764L48 4.53687Z" stroke="#F55727" stroke-width="3" stroke-linecap="round" stroke-linejoin="round"/>
</svg>
