<svg width="206" height="258" viewBox="0 0 206 258" fill="none" xmlns="http://www.w3.org/2000/svg">
<mask id="path-1-inside-1_491_1281" fill="white">
<path fill-rule="evenodd" clip-rule="evenodd" d="M126.724 10.5625C126.336 4.66409 121.428 3.82549e-06 115.432 3.82549e-06L39.2317 0C33.2351 -2.62121e-07 28.3278 4.66409 27.9396 10.5625H24C10.7452 10.5625 7.84709e-06 21.3077 7.2677e-06 34.5625L0 200.828C0 214.083 10.7452 224.828 24 224.828L130.664 224.828C143.918 224.828 154.664 214.083 154.664 200.828L154.664 34.5625C154.664 21.3077 143.918 10.5625 130.664 10.5625H126.724ZM121.915 59.6022C125.229 59.6022 127.915 62.2885 127.915 65.6022C127.915 68.9159 125.229 71.6022 121.915 71.6022H33.9149C30.6012 71.6022 27.9149 68.9159 27.9149 65.6022C27.9149 62.2885 30.6012 59.6022 33.9149 59.6022L121.915 59.6022ZM127.915 95.6022C127.915 92.2885 125.229 89.6022 121.915 89.6022L33.9149 89.6022C30.6012 89.6022 27.9149 92.2885 27.9149 95.6022C27.9149 98.9159 30.6012 101.602 33.9149 101.602L121.915 101.602C125.229 101.602 127.915 98.9159 127.915 95.6022ZM121.915 119.602C125.229 119.602 127.915 122.288 127.915 125.602C127.915 128.916 125.229 131.602 121.915 131.602H33.9149C30.6012 131.602 27.9149 128.916 27.9149 125.602C27.9149 122.288 30.6012 119.602 33.9149 119.602H121.915ZM127.915 155.602C127.915 152.288 125.229 149.602 121.915 149.602L33.9149 149.602C30.6012 149.602 27.9149 152.288 27.9149 155.602C27.9149 158.916 30.6012 161.602 33.9149 161.602L121.915 161.602C125.229 161.602 127.915 158.916 127.915 155.602ZM84.9149 179.602C88.2286 179.602 90.9149 182.288 90.9149 185.602C90.9149 188.916 88.2286 191.602 84.9149 191.602H33.9149C30.6012 191.602 27.9149 188.916 27.9149 185.602C27.9149 182.288 30.6012 179.602 33.9149 179.602H84.9149Z"/>
</mask>
<path d="M115.432 3.82549e-06V3V3.82549e-06ZM126.724 10.5625L123.73 10.7595L123.915 13.5625H126.724V10.5625ZM39.2317 0V-3V0ZM27.9396 10.5625V13.5625H30.7487L30.9331 10.7595L27.9396 10.5625ZM24 10.5625V13.5625V10.5625ZM7.2677e-06 34.5625H-2.99999H7.2677e-06ZM0 200.828H-3H0ZM24 224.828V221.828V224.828ZM130.664 224.828V227.828V224.828ZM154.664 200.828H151.664H154.664ZM154.664 34.5625H157.664H154.664ZM121.915 59.6022V62.6022V59.6022ZM33.9149 59.6022V56.6022V59.6022ZM121.915 89.6022V92.6022V89.6022ZM33.9149 89.6022V86.6022V89.6022ZM33.9149 101.602V98.6022V101.602ZM121.915 101.602V104.602V101.602ZM121.915 149.602V152.602V149.602ZM33.9149 149.602V146.602V149.602ZM33.9149 161.602V158.602V161.602ZM121.915 161.602V164.602V161.602ZM115.432 3C119.838 3 123.445 6.42759 123.73 10.7595L129.717 10.3655C129.226 2.90059 123.019 -3 115.432 -3V3ZM39.2317 3L115.432 3V-3L39.2317 -3V3ZM30.9331 10.7595C31.2182 6.42759 34.8259 3 39.2317 3V-3C31.6442 -3 25.4374 2.90059 24.9461 10.3655L30.9331 10.7595ZM27.9396 7.5625H24V13.5625H27.9396V7.5625ZM24 7.5625C9.08832 7.5625 -2.99999 19.6508 -2.99999 34.5625H3.00001C3.00001 22.9645 12.402 13.5625 24 13.5625V7.5625ZM-2.99999 34.5625L-3 200.828H3L3.00001 34.5625H-2.99999ZM-3 200.828C-3 215.74 9.08831 227.828 24 227.828V221.828C12.402 221.828 3 212.426 3 200.828H-3ZM24 227.828L130.664 227.828V221.828L24 221.828V227.828ZM130.664 227.828C145.575 227.828 157.664 215.74 157.664 200.828H151.664C151.664 212.426 142.262 221.828 130.664 221.828V227.828ZM157.664 200.828L157.664 34.5625H151.664L151.664 200.828H157.664ZM157.664 34.5625C157.664 19.6508 145.575 7.56251 130.664 7.56251V13.5625C142.262 13.5625 151.664 22.9645 151.664 34.5625H157.664ZM130.664 7.56251H126.724V13.5625H130.664V7.56251ZM130.915 65.6022C130.915 60.6316 126.885 56.6022 121.915 56.6022V62.6022C123.572 62.6022 124.915 63.9453 124.915 65.6022H130.915ZM121.915 74.6022C126.885 74.6022 130.915 70.5727 130.915 65.6022H124.915C124.915 67.259 123.572 68.6022 121.915 68.6022V74.6022ZM33.9149 74.6022H121.915V68.6022H33.9149V74.6022ZM24.9149 65.6022C24.9149 70.5727 28.9443 74.6022 33.9149 74.6022V68.6022C32.258 68.6022 30.9149 67.259 30.9149 65.6022H24.9149ZM33.9149 56.6022C28.9443 56.6022 24.9149 60.6316 24.9149 65.6022H30.9149C30.9149 63.9453 32.258 62.6022 33.9149 62.6022V56.6022ZM121.915 56.6022L33.9149 56.6022V62.6022L121.915 62.6022V56.6022ZM121.915 92.6022C123.572 92.6022 124.915 93.9453 124.915 95.6022H130.915C130.915 90.6316 126.885 86.6022 121.915 86.6022V92.6022ZM33.9149 92.6022L121.915 92.6022V86.6022L33.9149 86.6022V92.6022ZM30.9149 95.6022C30.9149 93.9453 32.258 92.6022 33.9149 92.6022V86.6022C28.9443 86.6022 24.9149 90.6316 24.9149 95.6022H30.9149ZM33.9149 98.6022C32.258 98.6022 30.9149 97.259 30.9149 95.6022H24.9149C24.9149 100.573 28.9443 104.602 33.9149 104.602V98.6022ZM121.915 98.6022L33.9149 98.6022V104.602L121.915 104.602V98.6022ZM124.915 95.6022C124.915 97.259 123.572 98.6022 121.915 98.6022V104.602C126.885 104.602 130.915 100.573 130.915 95.6022H124.915ZM130.915 125.602C130.915 120.632 126.885 116.602 121.915 116.602V122.602C123.572 122.602 124.915 123.945 124.915 125.602H130.915ZM121.915 134.602C126.885 134.602 130.915 130.573 130.915 125.602H124.915C124.915 127.259 123.572 128.602 121.915 128.602V134.602ZM33.9149 134.602H121.915V128.602H33.9149V134.602ZM24.9149 125.602C24.9149 130.573 28.9443 134.602 33.9149 134.602V128.602C32.258 128.602 30.9149 127.259 30.9149 125.602H24.9149ZM33.9149 116.602C28.9443 116.602 24.9149 120.632 24.9149 125.602H30.9149C30.9149 123.945 32.258 122.602 33.9149 122.602V116.602ZM121.915 116.602H33.9149V122.602H121.915V116.602ZM121.915 152.602C123.572 152.602 124.915 153.945 124.915 155.602H130.915C130.915 150.632 126.885 146.602 121.915 146.602V152.602ZM33.9149 152.602L121.915 152.602V146.602L33.9149 146.602V152.602ZM30.9149 155.602C30.9149 153.945 32.258 152.602 33.9149 152.602V146.602C28.9443 146.602 24.9149 150.632 24.9149 155.602H30.9149ZM33.9149 158.602C32.258 158.602 30.9149 157.259 30.9149 155.602H24.9149C24.9149 160.573 28.9443 164.602 33.9149 164.602V158.602ZM121.915 158.602L33.9149 158.602V164.602L121.915 164.602V158.602ZM124.915 155.602C124.915 157.259 123.572 158.602 121.915 158.602V164.602C126.885 164.602 130.915 160.573 130.915 155.602H124.915ZM93.9149 185.602C93.9149 180.632 89.8855 176.602 84.9149 176.602V182.602C86.5717 182.602 87.9149 183.945 87.9149 185.602H93.9149ZM84.9149 194.602C89.8855 194.602 93.9149 190.573 93.9149 185.602H87.9149C87.9149 187.259 86.5717 188.602 84.9149 188.602V194.602ZM33.9149 194.602H84.9149V188.602H33.9149V194.602ZM24.9149 185.602C24.9149 190.573 28.9443 194.602 33.9149 194.602V188.602C32.258 188.602 30.9149 187.259 30.9149 185.602H24.9149ZM33.9149 176.602C28.9443 176.602 24.9149 180.632 24.9149 185.602H30.9149C30.9149 183.945 32.258 182.602 33.9149 182.602V176.602ZM84.9149 176.602H33.9149V182.602H84.9149V176.602Z" fill="#4B00E3" mask="url(#path-1-inside-1_491_1281)"/>
<path d="M176.342 144.026L170.501 153.96C167.953 158.277 168.144 158.172 172.307 160.57L189.338 170.225C193.416 172.707 193.756 172.665 196.049 168.453L201.764 158.733C204.028 154.882 202.7 149.924 198.815 147.72L187.186 141.123C183.385 138.966 178.557 140.259 176.342 144.026Z" fill="#009A42"/>
<path d="M139.093 250.913L150.684 244.17C151.886 243.47 152.884 242.47 153.582 241.267L185.123 186.861C187.345 183.03 186.03 178.123 182.191 175.914L170.69 169.298C166.87 167.1 161.991 168.407 159.78 172.22L128.216 226.666C127.516 227.873 127.144 229.243 127.137 230.638L127.07 243.958C127.039 250.146 133.744 254.025 139.093 250.913Z" fill="#009A42"/>
</svg>
